<svg xmlns="http://www.w3.org/2000/svg" viewBox="0 0 512 512"><path d="M473.655 88.276h-435.3C17.167 88.276 0 105.443 0 126.62v73.47h512v-73.47c0-21.178-17.167-38.345-38.345-38.345zM0 385.38c0 21.177 17.167 38.345 38.345 38.345h435.3c21.177 0 38.345-17.167 38.345-38.345V311.9H0v73.47z" fill="#82afff"/><path d="M0 200.1h512v111.8H0z" fill="#f5f5f5"/><path d="M300.138 253.793h-31.784c.593-.45 1.062-.893 1.486-1.31.776-.76 1.393-1.362 3.03-2.035 1.646-.7 2.508-.698 3.6-.715 1.314-.01 2.802-.034 5.233-1.035 2.427-1.01 3.487-2.044 4.423-2.957.776-.76 1.393-1.362 3.034-2.044 1.633-.68 2.492-.7 3.577-.698 1.31-.018 2.797-.034 5.228-1.043l-1.698-4.07c-1.633.68-2.492.7-3.577.698-1.31.018-2.797.034-5.224 1.035-2.426 1.01-3.487 2.044-4.423 2.957-.776.76-1.393 1.362-3.03 2.035-1.646.7-2.508.698-3.6.715-1.314.01-2.802.034-5.233 1.043-2.426 1-3.487 2.044-4.423 2.957-.764.743-1.395 1.338-2.967 2.002l24.98-24.977-3.12-3.12-22.485 22.482c.1-.735.126-1.39.132-1.982.013-1.095.022-1.95.703-3.595s1.284-2.26 2.044-3.034c.922-.94 1.96-2.008 2.97-4.44s1.022-3.914 1.035-5.224c.013-1.086.022-1.95.698-3.586s1.28-2.25 2.04-3.026c.918-.94 1.956-2 2.962-4.423l-4.077-1.69c-.68 1.637-1.28 2.25-2.04 3.026-.918.94-1.956 2-2.962 4.423-1.004 2.43-1.022 3.914-1.035 5.224-.013 1.086-.022 1.95-.698 3.586-.68 1.646-1.284 2.26-2.044 3.034-.922.94-1.96 2.008-2.97 4.44s-1.022 3.923-1.038 5.233c-.01 1.063-.04 1.922-.676 3.5V211.86h-4.414v31.783a15.79 15.79 0 0 0-1.306-1.481c-.762-.776-1.362-1.397-2.044-3.034-.68-1.646-.694-2.508-.707-3.604-.013-1.31-.03-2.802-1.038-5.233-1.004-2.422-2.044-3.482-2.962-4.423-.76-.776-1.357-1.388-2.04-3.026-.676-1.638-.685-2.5-.698-3.586-.013-1.31-.03-2.793-1.035-5.216l-4.077 1.69c.676 1.638.685 2.492.698 3.577.013 1.31.03 2.793 1.035 5.224 1.004 2.422 2.044 3.482 2.962 4.423.76.776 1.357 1.388 2.04 3.026.68 1.646.694 2.508.707 3.604.013 1.31.03 2.802 1.038 5.233s2.044 3.49 2.962 4.43c.748.76 1.34 1.395 2.004 2.962l-24.982-24.98-3.12 3.12 24.943 24.94c-1.368-.62-2.028-1.192-2.745-1.888-.943-.922-2.008-1.965-4.448-2.974-2.43-1-3.918-1.026-5.233-1.043-1.095-.01-1.956-.025-3.616-.715-1.66-.68-2.28-1.284-3.07-2.05-.943-.914-2.013-1.956-4.457-2.974-2.44-1.01-3.932-1.026-5.25-1.043-1.1-.018-1.965-.034-3.625-.724l-1.69 4.086c2.44 1.01 3.932 1.026 5.25 1.043 1.1.018 1.965.034 3.625.724 1.664.68 2.284 1.284 3.073 2.05.943.922 2.013 1.956 4.452 2.966 2.44 1.017 3.932 1.035 5.246 1.052 1.095.018 1.956.025 3.608.715 1.65.68 2.268 1.284 3.048 2.044.4.394.85.81 1.39 1.233H211.86v4.414h35.254c-1.393.53-2.264.597-3.262.612-1.314.01-2.802.034-5.237 1.035-2.435 1.01-3.505 2.05-4.448 2.966-.785.767-1.4 1.37-3.052 2.05-1.66.7-2.526.707-3.625.724-1.32.018-2.8.034-5.25 1.043-2.444 1.017-3.513 2.05-4.457 2.974-.79.767-1.41 1.37-3.07 2.05l1.69 4.086c2.44-1.017 3.51-2.05 4.452-2.974.79-.767 1.41-1.37 3.073-2.05 1.66-.7 2.526-.707 3.625-.724 1.32-.018 2.8-.034 5.255-1.052 2.43-1.01 3.496-2.044 4.44-2.966.78-.76 1.4-1.362 3.057-2.044 1.646-.7 2.513-.698 3.604-.715.558-.003 1.187-.04 1.868-.124l-22.55 22.546 3.12 3.12 24.93-24.927c-.614 1.362-1.18 2.02-1.88 2.738-.918.94-1.956 2.008-2.966 4.44s-1.03 3.932-1.043 5.24c-.018 1.095-.025 1.956-.712 3.612-.685 1.664-1.293 2.284-2.056 3.07-.922.94-1.96 2.017-2.974 4.457s-1.03 3.932-1.047 5.25c-.018 1.095-.03 1.965-.715 3.62l4.077 1.69c1.013-2.44 1.03-3.932 1.047-5.25.018-1.095.03-1.965.715-3.62.685-1.664 1.293-2.284 2.056-3.07.922-.94 1.96-2.017 2.974-4.457 1.01-2.43 1.03-3.932 1.043-5.24.018-1.095.025-1.956.712-3.612.68-1.655 1.284-2.268 2.047-3.052l1.233-1.395v31.878h4.414v-35.252c.526 1.4.593 2.26.608 3.26.013 1.31.034 2.802 1.043 5.233 1.004 2.44 2.047 3.51 2.966 4.448.762.785 1.366 1.405 2.05 3.06s.698 2.526.715 3.62c.018 1.32.034 2.8 1.047 5.25s2.05 3.518 2.974 4.457c.762.785 1.37 1.405 2.056 3.07l4.077-1.69c-1.013-2.44-2.05-3.518-2.974-4.457-.762-.785-1.37-1.405-2.056-3.07-.685-1.655-.698-2.526-.715-3.62-.018-1.32-.034-2.8-1.047-5.25s-2.047-3.51-2.966-4.448c-.762-.785-1.366-1.405-2.05-3.06-.685-1.646-.694-2.508-.712-3.604-.006-.557-.042-1.187-.126-1.868l22.552 22.55 3.12-3.12-22.482-22.478c.73.097 1.384.126 1.973.134 1.1.01 1.95.018 3.595.698 1.646.7 2.263 1.284 3.043 2.05.94.914 2.004 1.956 4.436 2.966 2.426 1 3.914 1.017 5.224 1.026 1.086.018 1.944.025 3.582.707 1.638.672 2.25 1.276 3.026 2.035.94.914 2 1.956 4.427 2.966l1.69-4.086c-1.638-.672-2.25-1.276-3.026-2.035-.94-.914-2-1.956-4.427-2.966-2.427-1-3.914-1.017-5.224-1.026-1.086-.018-1.944-.025-3.582-.707-1.646-.68-2.263-1.276-3.043-2.044-.94-.914-2.004-1.956-4.436-2.957-2.43-1.017-3.918-1.035-5.233-1.043-1.07-.018-1.937-.038-3.524-.68h35.35v-4.414h.003z" fill="#f09146"/><circle cx="256" cy="256" r="22.07" fill="#ffe15a"/></svg>