<svg xmlns="http://www.w3.org/2000/svg" viewBox="0 0 512 512"><path d="M473.655 88.275h-435.3C17.167 88.275 0 105.442 0 126.62v258.76c0 21.177 17.167 38.345 38.345 38.345h435.3c21.177 0 38.345-17.167 38.345-38.345V126.62c0-21.178-17.167-38.345-38.345-38.345z" fill="#41479b"/><path d="M8.828 256h15.334l81.77-53.574V256h44.138v-53.574L231.84 256h15.334a8.83 8.83 0 0 0 8.828-8.828v-7.002l-70.155-45.963H256v-44.138h-70.155L256 104.105v-7.002a8.83 8.83 0 0 0-8.828-8.828h-15.334l-81.77 53.574V88.275H105.93v53.574L26.844 90.033c-9.234 2.9-16.954 9.203-21.71 17.434l65.023 42.6H0v44.138h70.155L0 240.17v7.002a8.83 8.83 0 0 0 8.828 8.828z" fill="#f5f5f5"/><path d="M256 158.896H141.24v-70.62h-26.48v70.62H0v26.482h114.76V256h26.482v-70.62H256zM8.227 102.9l72.662 47.167h16.214l-82.496-53.55c-2.37 1.87-4.5 4.013-6.38 6.383zm158.056 47.168l88.374-57.366c-1.536-2.6-4.246-4.427-7.485-4.427h-1.9l-95.193 61.793h16.214zm-76.81 44.138L1.27 251.462C2.8 254.124 5.542 256 8.828 256h1.665l95.196-61.793H89.474zm166.386 53.66l-82.666-53.658H156.98l93.874 60.935c2.812-1.305 4.74-4.04 5.006-7.277z" fill="#ff4b55"/><path d="M130.67 304.13l6.663 21.997 21.353-8.505c1.822-.726 3.478 1.352 2.366 2.966l-13.044 18.924 19.962 11.4c1.703.972 1.112 3.562-.844 3.7l-22.93 1.6 3.54 22.7c.302 1.938-2.092 3.1-3.418 1.646L128.77 363.63l-15.548 16.928c-1.326 1.444-3.72.3-3.418-1.646l3.54-22.7-22.93-1.6c-1.956-.137-2.548-2.727-.844-3.7l19.962-11.4-13.044-18.924c-1.112-1.614.544-3.692 2.366-2.966l21.353 8.505 6.663-21.997c.57-1.877 3.228-1.877 3.796 0zm262.6-156.4l3.255 10.745 10.43-4.154c.9-.354 1.7.66 1.155 1.45l-6.37 9.245 9.75 5.565c.832.474.543 1.74-.413 1.806l-11.2.782 1.73 11.093c.148.947-1.022 1.5-1.67.804l-7.595-8.27-7.595 8.27c-.648.705-1.817.142-1.67-.804l1.73-11.093-11.2-.782c-.956-.067-1.245-1.332-.413-1.806l9.75-5.565-6.37-9.245c-.544-.8.266-1.803 1.155-1.45l10.43 4.154 3.255-10.745c.28-.918 1.58-.918 1.857 0zm-72.578 82.474l3.255 10.745 10.43-4.154c.9-.354 1.7.66 1.155 1.45l-6.37 9.245 9.75 5.565c.832.474.543 1.74-.413 1.806l-11.2.782 1.73 11.093c.148.947-1.022 1.5-1.67.804l-7.595-8.27-7.595 8.27c-.648.705-1.817.142-1.67-.804l1.73-11.093-11.2-.782c-.956-.067-1.245-1.332-.413-1.806l9.75-5.565-6.37-9.245c-.544-.8.266-1.803 1.155-1.45l10.43 4.154 3.255-10.745c.278-.917 1.576-.917 1.854 0zm141.24-35.31l3.255 10.745 10.43-4.154c.9-.354 1.7.66 1.155 1.45l-6.37 9.245 9.75 5.565c.832.474.543 1.74-.413 1.806l-11.2.782 1.73 11.093c.148.947-1.022 1.5-1.67.804l-7.595-8.27-7.595 8.27c-.648.705-1.817.142-1.67-.804l1.73-11.093-11.2-.782c-.956-.067-1.245-1.332-.413-1.806l9.75-5.565-6.37-9.245c-.544-.8.266-1.803 1.155-1.45l10.43 4.154 3.255-10.745c.277-.916 1.575-.916 1.853 0zM393.28 336.135l3.255 10.745 10.43-4.155c.9-.354 1.7.66 1.155 1.45l-6.37 9.245 9.75 5.565c.832.474.543 1.74-.413 1.806l-11.2.782 1.73 11.093c.148.947-1.022 1.5-1.67.804l-7.595-8.27-7.595 8.27c-.648.705-1.817.142-1.67-.804l1.73-11.093-11.2-.782c-.956-.066-1.245-1.332-.413-1.806l9.75-5.565-6.37-9.245c-.544-.8.266-1.803 1.155-1.45l10.43 4.155 3.255-10.745c.28-.916 1.58-.916 1.857 0zm25.18-86.623l-2.613 7.836-8.26.064c-1.07.01-1.513 1.373-.652 2.008l6.644 4.907-2.492 7.875c-.322 1.02.84 1.863 1.708 1.24l6.72-4.803 6.72 4.803c.87.62 2.03-.222 1.708-1.24l-2.492-7.875 6.645-4.907c.86-.636.417-2-.652-2.008l-8.26-.064-2.613-7.836c-.34-1.014-1.775-1.014-2.113 0z" fill="#f5f5f5"/></svg>