<svg xmlns="http://www.w3.org/2000/svg" viewBox="0 0 512 512"><path d="M0 387.466c1.077 20.215 17.807 36.277 38.292 36.277h435.36c21.18 0 38.35-17.17 38.35-38.35v-73.48H0v75.55z" fill="#73af00"/><path d="M473.65 88.257H38.292C17.807 88.257 1.077 104.32 0 124.534v75.552h512v-73.48c0-21.18-17.17-38.35-38.35-38.35z" fill="#82afff"/><path d="M0 200.09h512v111.83H0z" fill="#ff4b55"/><path d="M268.07 292.6c-19.812 0-35.885-16.072-35.885-35.903 0-19.795 16.072-35.903 35.885-35.903 7.372 0 14.17 2.267 19.835 6.104.867.588 1.857-.553 1.13-1.308-8.467-8.802-20.45-14.173-33.736-13.72-22.826.78-41.723 19.08-43.182 41.873-1.67 26.107 19 47.803 44.74 47.803 12.678 0 24.072-5.3 32.2-13.775.718-.748-.274-1.872-1.132-1.3-5.672 3.848-12.48 6.118-19.866 6.118zm31.416-58.002l3.723 10.468 10.035-4.77c.756-.36 1.545.43 1.185 1.185l-4.77 10.035 10.468 3.723a.89.89 0 0 1 0 1.676l-10.468 3.723 4.77 10.035c.36.756-.43 1.545-1.185 1.185l-10.035-4.77-3.723 10.47a.89.89 0 0 1-1.676 0l-3.723-10.468-10.035 4.77c-.756.36-1.545-.43-1.185-1.185l4.77-10.035-10.468-3.723a.89.89 0 0 1 0-1.676l10.468-3.723-4.77-10.035c-.36-.756.43-1.545 1.185-1.185l10.035 4.77L297.8 234.6c.28-.788 1.396-.788 1.676-.001z" fill="#f5f5f5"/></svg>