<svg xmlns="http://www.w3.org/2000/svg" viewBox="0 0 512 512"><path d="M38.345 423.724h435.3c21.177 0 38.345-17.167 38.345-38.345V126.622c0-11.79-5.326-22.335-13.7-29.368L13.7 414.748c6.665 5.598 15.26 8.976 24.645 8.976z" fill="#ff6e55"/><path d="M13.7 414.748L498.3 97.253a38.18 38.18 0 0 0-24.644-8.977H38.345C17.167 88.277 0 105.443 0 126.622V385.38c0 11.79 5.326 22.334 13.7 29.368z" fill="#ffe15a"/><g fill="#fff5dc"><path d="M281.52 178.027c-4.436.95-11.405-1.426-11.405-1.426 1.436 2.473 5.276 4.138 8.74 5.186-2.796.28-5.985.437-9.532.36-14.257-.318-20.9 9.03-20.9 9.03 5.07-3.17 10.296-3.17 18.058-2.06s24.236-3.8 24.236-3.8l1.426-6.336c0-.003-6.178-1.903-10.613-.953zm14.653-29.7s7.37 1.562 14.852 5.855a7.47 7.47 0 0 0-1.29.864c-2.418-1.202-5.34-2.175-9.127-2.56 0 0 3.92 1.02 7.688 3.97-.975 1.15-1.78 2.456-2.398 3.618-8.287-8.886-17.25-2.955-17.25-2.955 11.117-.845 13.74 6.298 14.366 9.748a60.95 60.95 0 0 0-6.083-3.6c.28-.2.42-.397.747-.612 0 0-.696.028-1.662.172-14.188-6.82-21.15-1.44-21.15-1.44 6.3-.77 12.124.868 16.744 2.908-2.03 1.17-3.405 3.228-2.27 6.728-7.957-2.165-17.958-4.298-22.87-2.983-8.87 2.376-6.02 10.613-6.02 10.613s.16-5.544 6.178-6.812c4.506-.95 26.93 6.178 26.93 6.178l7.286-3.485-3-2.535s-5.784-2.322-3.304-6.312c4.147 2.2 6.788 4.4 6.788 4.4l1.783-2.605c.087.674.118 1.18.118 1.18l5.07-2.217 1.1-1.585c.444-2.404 1.178-4.114 2.023-5.394a16.61 16.61 0 0 1 3.284 6.937l4.594.476s-.746-5.3-5.886-9.533c.456-.324.906-.593 1.35-.772 3.385 2.43 6.542 5.466 8.734 9.276l8.474-.12c.001.001-13.938-15.522-35.798-17.423z"/><circle cx="377.04" cy="223.171" r="10.613"/><circle cx="352.26" cy="312.5" r="14.238"/><circle cx="243.72" cy="305.6" r="11.285"/><circle cx="217.77" cy="359.19" r="13.03"/><path d="M341.873 195.45s24.402 8.696 30.294 11.642c8.317 4.158 21.385-7.96 30.532 1.426 0 0-1.585-6.257-9.187-6.732 0 0 .16-6.178-6.97-5.86 0 0 5.227 3.8 2.218 6.495 0 0-2.06-4.594-7.92-3.8 0 0 4.435 1.742 3.327 4.435 0 0-7.05 3.405-10.217 1.188s-28.195-15.722-36.116-16.04l4.04 7.246z"/></g><path d="M335.615 203.055s5.227 1.545 12.83 9.504c3.523 3.69 12.593 3.92 11.167-3.208s-19.008-11.523-20.91-11.523-3.09 5.227-3.09 5.227z" fill="#f5f5f5"/><path d="M373.7 187.372l-9.98 3.327s1.1 6.772-4.594 9.742c-3.512 1.83-5.86 6.573-5.703 10.058 0 0 3.327-4.594 8.078-7.128l3.1-1.65c-.2 2.375-.24 4.868.078 7.037.95 6.494-1.1 8.712-1.1 8.712s5.545-4.277 4.9-11.246c-.244-2.678.195-4.575.877-6.015.5 4.853 3.082 7.125 3.082 7.125-1.9-3.8 2.06-7.92 3.644-11.247s-2.374-8.714-2.374-8.714zm25.227-13.78c-3.93-1.336-7.722 1.07-9.98 3.1-.96.86-3.493 1.297-6.084 1.532 1.73-1.224 3.572-2.67 4.54-3.907 2.138-2.732 6.06-3.208 9.385-4.277s4.753-5.346 4.753-5.346-1.782 2.614-6.772 2.376-6.653-.476-9.98 3.1c-1.023 1.096-2.455 1.943-3.94 2.624.032-1.557.167-3.538.614-4.882.832-2.495 4.633-4.514 4.87-9.504s.476-4.514 3.327-7.485 3.683-8.554 2.85-6.772-4.633 3.92-7.84 6.9-.95 6.296-2.614 8.9-5.583 3.208-5.822 8.078-3.683 7.722-3.683 7.722-8.435 4.633 1.663 8.317 18.268-6.563 23.285-6.296c11.167.594 14.137-3.1 14.137-3.1-1.9-.001-6.77.95-12.7-1.07zm-122.487 78.25c-.633-.476-11.563-12.514-15.207-14.257l.792 3s-2.376-.16-6.653-5.386-7.445-6.653-7.445-6.653 3 4.753 2.85 7.762c0 0-6.495-.476-13.464 2.85 0 0-3.168-6.178-5.86-7.286 0 0 .95 6.495-1.267 8.078s20.9 12.514 24.077 12.83 22.176-.95 22.176-.95zm14.417-23.6c-.225-.056-1.394.766-2.902 1.843l-2.008-11.98c0-.476-10.772-15.523-11.1-16.157-.005-.01-.04-.012-.05-.022 1.046-2.53 2.173-6.838-4.228-3.463-8.713 4.595-12.198 15.207-12.198 15.207 1.986-2.072 5.452-3.654 8.22-4.682.057 1.292.067 2.826-1.724 5.474-3.644 5.385-1.585 7.445-1.585 7.445 2.85-4.9 9.187-5.386 9.187-5.386-.95 5.862 2.376 9.187 2.376 9.187l2.692-3.168c-.332 4.535 2.095 9.4 3.604 11.958-.596.288-1.14.5-1.544.555-2.694.318-6.97 2.376-6.97 2.376s3.466-.74 5.434.78 5.1 2.684 6.798 2.326c0 0-.806 4.115.1 5.635 0 0-2.237-.628-4.83-.537s-4.482-1.7-4.482-1.7 4.753 6.8 8.237 8.236 9.504-3.8 9.504-3.8-1.898-19.96-2.53-20.116zm-81.895 99.318s-3 .317-5.86 4.594l-1.267-4.436s-3.485 2.535-7.286.95c0 0 3.485-.792 4.118-3.96s1.9-3.485 1.9-3.485-2.376-2.535-4.9-2.376c0 0 6.97-3.644 10.772-.16s2.532 8.872 2.532 8.872zm83.795-35.008s-3 .317-5.86 4.594l-1.267-4.435s-3.485 2.535-7.286.95c0 0 3.485-.792 4.118-3.96s1.9-3.485 1.9-3.485-2.376-2.535-4.9-2.376c0 0 6.97-3.644 10.772-.16s2.532 8.87 2.532 8.87zm51.38-45.064s-1.47 2.646.394 7.436l-4.36-1.5s.073 4.3-3.407 6.5c0 0 1.353-3.307-.876-5.646s-1.76-3.558-1.76-3.558-3.44.5-4.766 2.655c0 0 1.02-7.798 6.057-8.908s8.718 3.022 8.718 3.022z" fill="#fff5dc"/><path d="M359.4 301.02l3.066 1.828c-.893-.766-1.95-1.34-3.066-1.828z" fill="#ff6e55"/><path d="M186.478 316.313s-14.098 19.8-30.255 24.077l5.703-7.286s-7.604 6.653-16.157 8.078l10.296-11.88s-22.968 21.385-52.43 25.82c0 0 22.8-14.414 27.404-19.484 0 0-11.09 4.435-21.068 4.594 0 0 28.67-11.09 33.423-15.523 0 0-11.405 2.535-18.534.16 0 0 24.71-7.128 28.195-6.178 0 0-14.257-5.703-22.8-5.07 0 0 14.573-3.485 31.522 0l-3.644-3.96s9.663-2.535 19.167-3.168 4.753-1.426 4.753-1.426l1.11-3.168s-6.178.792-11.246 0c0 0 15.207-8.554 19.484-12.355s1.426-2.06 1.426-2.06-7.92 2.692-10.772 3.168c0 0 7.128-8.237 9.346-13.623 0 0-6.495 2.535-12.04 0 0 0 6.653-1.9 9.98-5.227s8.237-11.603 8.237-11.603l-5.703 2.495s5-8.554 9.386-10.692c0 0-7.485.594-9.86-1.188 0 0 7.96-1.9 10.336-3.8s7.604-6.89 12.95-5c0 0 7.485-6.89 5-11.405 0 0 4.87.356 7.366 3.327s6.415 5.465 6.415 5.465l-20.355 15.92-15.524 50.37-11.09 10.612z" fill="#fff5dc"/><g fill="#f5f5f5"><path d="M385.908 221.27c5.862 9.504-1.426 10.455-1.426 10.455-1.11-9.03-8.712-7.92-8.712-7.92l2.06 6.653c-12.672 1.585-11.722-11.09-11.722-11.09-1.9 1.585-5.07 8.078-5.07 8.078s-34.215 11.405-57.342-22.493c0 0-.633-6.02 1.268-8.872l-14.257-10.77-18.375 2.535s-7.286 16.473 1.585 26.612 19.325 24.394 17.425 31.047c-1.127 3.944-4.48 5.55-9.135 5.214-3.2-.23-7.01-1.378-11.14-3.313-10.138-4.753-34.85-14.89-52.6-6.653s-19.666 22.5-23.127 33.582c-3.064 9.818-9.863 34.884-58.3 57.753-2.314 1.092-1.137 4.61 1.346 3.992 20.996-5.22 49.62-13.918 58.457-24.203l7.128.237-2.614 10.93s9.267 2.85 10.692 16.395c0 0-16.236 4.435-7.05 18.375 0 0 1.426-10.138 12.672-10.613 0 0 2.535 3.327 8.078 3.8 0 0 2.85 4.595 1.426 8.396 0 0 11.246-3.485 1.742-16.95 0 0 10.613-2.534 12.04 10.772 0 0 6.812-21.543-17.503-19.96 0 0 0-3.8-6.415-10.692 0 0-1.583-3.882 0-9.267.477-1.62.908-3.303 1.268-5.017a13.24 13.24 0 0 0 6.018 1.692s3.96 6.494 15.682 5.385c0 0-8.554-3.96-7.762-11.563s10.772-11.723 15.05-8.713c0 0-1.11-9.98-16.632-3.485 0 0 0-7.445 8.237-7.92 0 0-13.305-10.138-16.316 9.187l-5.506 1.376c-2.7-7.457-6.098-24.77 8.99-31.078 15.92-6.653 32.552 8.317 62.015 9.742 0 0-2.85 17.345 6.653 21.622s32.79 8.317 32.79 8.317c-.237 25.027 17.978 21.7 17.978 21.7-8.84-5.298-8.84-15.406-3.384-21.3 7.437-8.046 20.333-.392 20.333-.392-.182-12.182-17.266-10.297-17.266-10.297 2.692-7.92 13.305-9.98 13.305-9.98-14.73-5.385-26.93 10.535-26.93 10.535l-24.95-7.128s-.95-5 5-11.642 10.93-17.82 9.267-29.7c0 0 6.89-4.832 15.444-.08s26.93-5.703 26.93-5.703c7.92 10.137 26.77 8.237 29.304-3.96s-6.65-13.624-6.65-13.624z"/><path d="M359.772 192.126c-4.712-2.75-13.148-5.07-16 1.267s-6.02 12.672-15.84 12.355-14.257 8.078-21.068 5.703c0 0 6.336-2.06 7.604-5.07s6.336-8.554 6.336-8.554l-.633-5.703s-11.722.632-15.207 3.96-16.632-2.85-16.632-2.85l1.585-13.78s10.137-15.523 24.236-14.414 16.474-2.535 23.285-2.06 10.296 7.445 17.582 9.03 21.86-1.426 23.76 3-3.644 6.178-5.07 12.355-4.437 10.294-13.94 4.75z"/></g><g fill="#fff5dc"><path d="M318.588 188.165s-6.812 4.594-12.514 2.692-10.772-1.267-16.632.633c0 0 10.772-1.267 15.207 2.85s15.682 1.426 16.474-.317l-2.535-5.86z"/><path d="M322.072 198.777s-6.653 4.753-13.305 3.485-12.672 1.426-12.672 1.426 4.9-5.386 11.563-4.435 9.028-5.544 9.028-5.544l4.436.317.95 4.75z"/><circle cx="327.46" cy="192.921" r="8.872"/><path d="M322.23 186.264s-3.485-4.435-12.198-2.692-10.772-1.426-10.772-1.426 4.118 6.336 10.613 5.544 9.187 3.644 9.187 3.644l3.17-5.07zm29.3-11.092c.783-1.08 1.768-2.108 3.114-2.9.794-.462 1.6-.754 2.42-.994.18-1.203.003-2.5-.683-3.678-1.497-2.57-4.6-3.546-6.954-2.18s-3.03 4.555-1.532 7.125a5.49 5.49 0 0 0 3.635 2.618zm-7.783 10.206c.446-1.257 1.1-2.52 2.168-3.655.63-.668 1.332-1.178 2.04-1.638-.168-1.204-.704-2.4-1.696-3.335-2.163-2.04-5.426-2.097-7.287-.125s-1.617 5.226.547 7.267a5.49 5.49 0 0 0 4.229 1.486z"/></g></svg>