<svg xmlns="http://www.w3.org/2000/svg" viewBox="0 0 512 512"><path d="M473.655 88.275h-435.3C17.167 88.275 0 105.442 0 126.62v258.76c0 21.177 17.167 38.345 38.345 38.345h435.3c21.177 0 38.345-17.167 38.345-38.345V126.62c0-21.178-17.167-38.345-38.345-38.345z" fill="#73af00"/><path d="M251.4 135.207L65.354 248.458c-5.65 3.44-5.65 11.64 0 15.08L251.4 376.792a8.83 8.83 0 0 0 9.18 0L446.646 263.54c5.65-3.44 5.65-11.64 0-15.08L260.6 135.207c-2.82-1.715-6.36-1.715-9.18 0z" fill="#ffe15a"/><circle cx="256" cy="255.999" r="70.62" fill="#41479b"/><path d="M195.4 219.872c-3.332 5.578-5.905 11.64-7.605 18.077 39.15-2.946 97.062 8.006 133.922 43.773 2.406-6.14 3.995-12.683 4.6-19.522-38.06-32.033-90.68-43.424-130.907-42.328zm63.525 60.228l1.88 5.638 5.943.046c.77.006 1.088.988.47 1.445l-4.78 3.53 1.793 5.666c.232.734-.604 1.34-1.23.893l-4.835-3.456-4.835 3.456c-.626.447-1.46-.16-1.23-.893l1.793-5.666-4.78-3.53c-.62-.457-.3-1.44.47-1.445l5.943-.046 1.88-5.638c.244-.73 1.276-.73 1.52 0zm23.1 14.583l.8 2.426 2.558.02c.33.002.468.425.202.622l-2.058 1.52.77 2.44c.1.316-.26.577-.53.384l-2.08-1.487-2.08 1.487c-.27.193-.63-.068-.53-.384l.77-2.44-2.058-1.52c-.267-.196-.13-.62.202-.622l2.558-.02.8-2.426c.107-.315.552-.315.657 0zm-33.086-25.295l.8 2.426 2.558.02c.33.002.47.425.202.622l-2.058 1.52.77 2.44c.1.316-.26.577-.53.384l-2.08-1.487-2.08 1.487c-.27.193-.63-.068-.53-.384l.77-2.44-2.058-1.52c-.266-.196-.13-.62.202-.622l2.558-.02.8-2.426a.35.35 0 0 1 .657 0zm-44.808-2.942l.8 2.426 2.558.02c.33.002.47.425.202.622l-2.058 1.52.77 2.44c.1.316-.26.577-.53.384l-2.08-1.487-2.08 1.487c-.27.192-.63-.068-.53-.384l.77-2.44-2.058-1.52c-.267-.196-.13-.62.202-.622l2.558-.02.8-2.426a.35.35 0 0 1 .657 0zm37.484 27.4l.8 2.426 2.558.02c.33.002.47.425.202.622l-2.058 1.52.77 2.44c.1.316-.26.577-.53.384l-2.08-1.487-2.08 1.487c-.27.193-.63-.068-.53-.384l.77-2.44-2.058-1.52c-.266-.196-.13-.62.202-.622l2.558-.02.8-2.426c.108-.314.553-.314.657 0zM221 264.753l.662 1.984 2.092.017c.27.002.383.348.166.5l-1.683 1.242.63 1.994c.082.258-.212.472-.433.314l-1.702-1.216-1.702 1.216c-.22.158-.514-.056-.433-.314l.63-1.994-1.683-1.242c-.217-.16-.106-.507.166-.5l2.092-.017.662-1.984c.085-.256.448-.256.534 0zm62.82-40.96l.828 2.482 2.616.02c.34.002.48.435.206.637l-2.104 1.554.8 2.495c.103.323-.266.6-.54.393l-2.13-1.522-2.13 1.522c-.276.198-.643-.07-.54-.393l.8-2.495-2.104-1.554c-.273-.2-.132-.633.206-.637l2.616-.02.828-2.482c.108-.324.563-.324.67 0zm-76.808 28.82l.662 1.984 2.092.017c.27.002.383.348.166.5l-1.683 1.242.63 1.994c.082.258-.212.472-.433.314l-1.702-1.216-1.702 1.216c-.22.158-.514-.056-.433-.314l.63-1.994-1.683-1.242c-.218-.16-.106-.506.166-.5l2.092-.017.662-1.984c.085-.257.448-.257.534 0zm10.1 27.965l1.002 3.005 3.168.024a.43.43 0 0 1 .25.77l-2.55 1.882.956 3.02a.43.43 0 0 1-.655.476l-2.578-1.843-2.578 1.843a.43.43 0 0 1-.655-.476l.956-3.02-2.55-1.882a.43.43 0 0 1 .25-.77l3.168-.024 1.002-3.005a.43.43 0 0 1 .812 0zm77.79 14.733l.63 1.9 1.993.015a.27.27 0 0 1 .158.484l-1.603 1.184.6 1.9a.27.27 0 0 1-.413.299l-1.62-1.16-1.622 1.16a.27.27 0 0 1-.413-.299l.6-1.9-1.603-1.184a.27.27 0 0 1 .158-.484l1.993-.015.63-1.9a.27.27 0 0 1 .51 0zm6.974-14.43l.8 2.426 2.558.02c.33.002.47.425.202.622l-2.058 1.52.77 2.44c.1.316-.26.577-.53.384l-2.08-1.487-2.08 1.487c-.27.193-.63-.068-.53-.384l.77-2.44-2.058-1.52c-.266-.196-.13-.62.202-.622l2.558-.02.8-2.426c.106-.315.55-.315.656 0z" fill="#f5f5f5"/></svg>