<svg xmlns="http://www.w3.org/2000/svg" xmlns:xlink="http://www.w3.org/1999/xlink" viewBox="0 0 512 512"><path d="M473.655 423.724h-435.3C17.167 423.724 0 406.557 0 385.38V126.62c0-21.177 17.167-38.345 38.345-38.345h435.3c21.177 0 38.345 17.167 38.345 38.345v258.76c0 21.177-17.167 38.344-38.345 38.344z" fill="#ffe15a"/><path d="M512 300.138L16.51 95.106C6.536 102.03 0 113.56 0 126.62v23.448L512 361.93v-61.793z" fill="#f5f5f5"/><path d="M512 385.38V361.93L0 150.07v61.793l495.49 205.03C505.465 409.97 512 398.44 512 385.38z" fill="#464655"/><path d="M305.6 240.326l.007-.25-.338-3.478c-.067-1.134-.328-2.515-.672-4.125-.266-1.623-.78-3.44-1.44-5.443-1.326-3.977-3.367-8.725-6.9-13.322-.426-.568-.93-1.13-1.394-1.694 2-2.292 3.95-4.958 5.788-8.175 0 0-10.08.462-21.4-4.478-3.737-1.946-7.796-3.543-12.248-4.6l-2.112-8.447a4.06 4.06 0 0 0-3.937-3.074h-2.92v-4.058h14.206l-4.058-8.118 4.058-8.118h-14.2v-4.06h-4.06v24.353h-2.92a4.06 4.06 0 0 0-3.937 3.074l-2.066 8.265c-2.742.584-5.473 1.325-8.124 2.452-2.17.868-4.267 1.956-6.315 3.174-10.413 3.997-19.257 3.624-19.257 3.624 1.838 3.215 3.785 5.88 5.783 8.17-.405.492-.854.934-1.246 1.44-2.765 3.755-4.973 7.977-6.658 12.46-1.603 4.353-2.514 9.878-2.82 13.917l-.008 3.905c-.04 1.226.1 2.44.228 3.66.16 2.457.703 4.855 1.215 7.27 1.266 4.758 3.118 9.387 5.643 13.638 5.054 8.513 12.762 15.224 21.405 19.385 4.465 1.967 8.683 3.466 13.716 4.18 2.68.5 4.35.5 6.337.664l.542.04.6.015.845-.035 1.684-.076c1.118-.075 2.236-.06 3.33-.224 8.832-.97 16.793-4.403 23-8.862 6.215-4.54 10.68-10.073 13.737-15.35 3.106-5.28 4.708-10.4 5.696-14.577.472-2.1.823-4 .95-5.796.2-1.778.318-3.234.265-4.185l-.007-3.156zm-73.77 28.605c-2.82-2.198-5.37-4.818-7.693-7.708-2.237-2.96-4.024-6.297-5.427-9.846-1.323-3.473-2.05-7.648-2.4-11.05-.1-4.723.122-7.944 1.024-11.97.983-3.825 2.417-7.57 4.412-11.023.116-.2.273-.37.392-.567 9.227 7.208 18.97 6.695 25.763 3.197v7.938c2.24 0 4.058 4.543 4.058 10.147s-1.817 10.147-4.058 10.147v4.058c7.613 10.15 4.12 18.713-.558 23.706-2.123-.46-4.326-1.08-6.386-1.892-3.195-1.242-6.23-3.033-9.118-5.135zm63.883-29.06l-.32 3.092c-.062 1.1-.307 2.16-.6 3.322-.202 1.173-.63 2.593-1.182 4.203-1.1 3.154-2.752 6.92-5.626 10.528a40.6 40.6 0 0 1-11.325 9.99c-3.594 2.133-7.818 3.576-12.28 4.6-4.52-5.037-7.703-13.428-.258-23.353v-4.058c-2.24 0-4.06-4.543-4.06-10.147s1.817-10.147 4.06-10.147v-7.938c6.802 3.502 16.56 4.013 25.796-3.22.158.266.35.536.5.8 2.456 4.292 3.67 8.42 4.43 11.782.363 1.697.63 3.2.693 4.556.14 1.33.242 2.457.184 3.384l-.02 2.606zM256 300.96c-14.987 0-28.582-5.838-38.727-15.326-1.863-1.74-4.8-1.53-6.47.406l-15.542 18.133c-1.652 1.928-.282 4.905 2.255 4.905h9.775l13.03 6.516a4.06 4.06 0 0 0 5.193-1.379l4.194-6.292a68.75 68.75 0 0 0 52.58 0l4.194 6.292a4.06 4.06 0 0 0 5.193 1.379l13.03-6.516h9.775c2.538 0 3.908-2.977 2.255-4.905l-15.542-18.133c-1.66-1.937-4.607-2.147-6.47-.406-10.143 9.5-23.737 15.326-38.725 15.326zm-56.824-16.236H178.88l4.058-36.53s-14.207-7.104-12.72-27.956c.18-2.536 2.325-4.516 4.867-4.516h3.464c2.392 0 4.397 1.734 4.793 4.093.854 5.1 3.5 13.448 11.772 16.202l4.06 48.708zm113.65 0h20.295l-4.06-36.53s14.207-7.104 12.72-27.956c-.18-2.536-2.325-4.516-4.867-4.516h-3.464c-2.392 0-4.397 1.734-4.793 4.093-.854 5.1-3.5 13.448-11.772 16.202l-4.06 48.708z" fill="#ff4b55"/><g fill="#ffe15a"><use xlink:href="#B"/><use xlink:href="#B" x="133.945"/></g><defs ><path id="B" d="M201.205 288.782h-24.353a2.03 2.03 0 0 1-2.029-2.029 2.03 2.03 0 0 1 2.029-2.029h24.353a2.03 2.03 0 0 1 2.029 2.029 2.03 2.03 0 0 1-2.029 2.029z"/></defs></svg>