<svg xmlns="http://www.w3.org/2000/svg" viewBox="0 0 512 512"><path d="M473.654 423.724H38.345C17.167 423.724 0 406.557 0 385.38V126.62c0-21.177 17.167-38.345 38.345-38.345h435.31c21.177 0 38.345 17.167 38.345 38.345V385.38c0 21.178-17.168 38.345-38.345 38.345z" fill="#41479b"/><path d="M0 167.72h512v176.55H0z" fill="#ff4b55"/><path d="M372.816 322.933v-12.516h-4.172v-8.344h-4.173v-8.344H360.3v-8.344h-12.516l-.001-25.03 4.173-4.173v-12.516h-4.172v-8.343h-4.172v-12.517h-4.17v-8.344h-4.172v-8.344h-4.172v-4.17h-8.345v4.17h-4.172v8.344h-4.172v8.344h-4.17v12.517h-4.172v8.343H281.03V231.15h-4.17v-12.517h-4.172v-12.516h-4.172v-8.343h-4.172v-8.344h-4.172v-4.173h-2.086v-4.172h-4.172v4.172h-2.087v4.173h-4.17v8.344h-4.172v8.343h-4.172v12.516h-4.172v12.517h-4.172v12.515h-25.032v-8.343h-4.172v-12.517h-4.172v-8.344h-4.172v-8.344h-4.172v-4.17h-8.344v4.17h-4.172v8.344h-4.172v8.344h-4.172v12.517h-4.172v8.343h-4.172v12.516l4.172 4.173v25.03H151.7v8.344h-4.172v8.344h-4.173v8.344h-4.172v12.516h-4.172v12.516h241.975v-12.516z" fill="#f5f5f5"/></svg>