<svg xmlns="http://www.w3.org/2000/svg" viewBox="0 0 512 512"><path d="M114.76 88.277h282.48v335.45H114.76z" fill="#f5f5f5"/><path d="M38.345 88.273C17.167 88.273 0 105.44 0 126.618v258.76c0 21.177 17.167 38.345 38.345 38.345h76.414V88.273H38.345zm435.3 0H397.24V423.72h76.414c21.177 0 38.345-17.167 38.345-38.345V126.618c0-21.178-17.167-38.345-38.345-38.345zM309.57 294.757l52.383-29.932-12.02-6a8.83 8.83 0 0 1-4.802-9.063l3.9-29.322-22.177 6.452a8.83 8.83 0 0 1-11.085-6.569l-2.124-9.6-20.823 24.37c-2.886 3.378-8.386.798-7.633-3.58l8.893-51.708-13.615 3.723c-3.977 1.088-8.177-.722-10.116-4.36l-14.337-26.87v-.04l-.01.02-.01-.02v.04l-14.337 26.87a8.83 8.83 0 0 1-10.118 4.36l-13.615-3.723 8.893 51.708c.753 4.378-4.747 6.96-7.634 3.582l-20.823-24.37-2.124 9.6a8.83 8.83 0 0 1-11.085 6.569l-22.177-6.452 3.9 29.322a8.83 8.83 0 0 1-4.802 9.063l-12.02 6 52.383 29.933c5.426 3.1 7.804 9.677 5.615 15.53l-4.478 11.977 44.885-3.832c2.484-.212 4.598 1.788 4.525 4.28l-1.414 48.044h8.828L259 322.7c-.073-2.492 2.04-4.5 4.525-4.28l44.906 3.834-4.478-11.977a12.75 12.75 0 0 1 5.616-15.531z" fill="#ff4b55"/></svg>