<svg xmlns="http://www.w3.org/2000/svg" viewBox="0 0 512 512"><path d="M473.655 88.275h-435.3C17.167 88.275 0 105.442 0 126.62v258.76c0 21.177 17.167 38.345 38.345 38.345h435.3c21.177 0 38.345-17.167 38.345-38.345V126.62c0-21.178-17.167-38.345-38.345-38.345z" fill="#ff4b55"/><path d="M85.007 140.73l8.416 25.234 26.6.206c3.444.026 4.872 4.422 2.1 6.467l-21.398 15.8 8.023 25.362c1.038 3.284-2.7 6-5.502 3.997l-21.64-15.47-21.64 15.468c-2.802 2.003-6.54-.714-5.502-3.997l8.023-25.362-21.398-15.8c-2.77-2.046-1.343-6.44 2.1-6.467l26.6-.206 8.416-25.234c1.1-3.267 5.7-3.267 6.8 0zm96.593 6.22l6.035 8.228 9.74-3.046c1.26-.394 2.298 1.044 1.526 2.115l-5.962 8.28 5.906 8.32c.765 1.077-.282 2.508-1.54 2.105l-9.72-3.1-6.1 8.2c-.788 1.06-2.473.506-2.478-.814l-.045-10.205-9.67-3.26a1.38 1.38 0 0 1 .009-2.609l9.7-3.196.114-10.204c.014-1.317 1.703-1.858 2.484-.793zm-36.743-24.53l10.143 1.1 4.328-9.24c.56-1.196 2.322-1 2.6.302l2.086 9.988 10.126 1.26a1.38 1.38 0 0 1 .513 2.558l-8.855 5.07 1.93 10.02a1.38 1.38 0 0 1-2.274 1.279l-7.56-6.855-8.932 4.932a1.38 1.38 0 0 1-1.919-1.768l4.183-9.308-7.452-6.972c-.963-.898-.224-2.5 1.1-2.367zm16.038 98.893l-6.034 8.23-9.74-3.046c-1.26-.394-2.298 1.043-1.526 2.115l5.962 8.28-5.906 8.32c-.765 1.077.282 2.508 1.54 2.105l9.718-3.1 6.1 8.2c.788 1.06 2.473.506 2.478-.814l.045-10.205 9.67-3.26a1.38 1.38 0 0 0-.009-2.609l-9.7-3.196-.114-10.204c-.016-1.32-1.703-1.86-2.484-.795zm36.74-23.053l-10.145 1.102-4.328-9.24c-.56-1.196-2.32-1-2.6.302l-2.087 9.988-10.126 1.26a1.38 1.38 0 0 0-.513 2.558l8.855 5.07-1.93 10.02a1.38 1.38 0 0 0 2.274 1.279l7.56-6.855 8.932 4.932a1.38 1.38 0 0 0 1.919-1.768l-4.183-9.308 7.452-6.972c.967-.898.228-2.5-1.087-2.367z" fill="#ffe15a"/></svg>