<svg xmlns="http://www.w3.org/2000/svg" xmlns:xlink="http://www.w3.org/1999/xlink" viewBox="0 0 512 512"><path d="M0 203.03h512v105.94H0z" fill="#ff4b55"/><path d="M473.65 88.257H38.292C17.807 88.257 1.077 104.32 0 124.534v21.11h512v-19.037c0-21.18-17.17-38.35-38.35-38.35z" fill="#41479b"/><path d="M0 145.64h512v57.4H0z" fill="#f5f5f5"/><path d="M0 387.466c1.077 20.215 17.807 36.277 38.292 36.277h435.36c21.18 0 38.35-17.17 38.35-38.35v-19.037H0v21.11z" fill="#41479b"/><g fill="#f5f5f5"><path d="M0 308.97h512v57.4H0z"/><ellipse cx="138.41" cy="255.999" rx="41.3" ry="44.14"/></g><path d="M117.05 238.91h42.72v21.36h-42.72z" fill="#3cc8ff"/><path d="M122.746 251.058l.488 4.713 1.92-4.33-.992 4.632 3.164-3.526-2.376 4.1 4.098-2.375-3.525 3.164 4.632-.994-4.33 1.92 4.712.487-4.712.487 4.33 1.92-4.632-.993 3.525 3.165-4.098-2.376 2.376 4.1-3.164-3.526.992 4.633-1.92-4.332-.488 4.712-.488-4.712-1.92 4.332.992-4.633-3.164 3.526 2.375-4.1-4.1 2.376 3.526-3.165-4.63.993 4.33-1.92-4.712-.487 4.712-.487-4.33-1.92 4.63.994-3.526-3.164 4.1 2.375-2.375-4.1 3.164 3.526-.992-4.632 1.92 4.33z" fill="#ffe15a"/><path d="M146.953 290.176h-17.087l-15.664-12.816v-18.512h49.838v18.512z" fill="#41479b"/><path d="M155.497 253.152h-.001a.71.71 0 0 0-.711-.704c-.39 0-.705.315-.71.704h-.001c0 2.47-1.432 5.9-3.188 8.337-2.452-3.097-3.375-6.687-3.722-8.948-.166-1.078-1.33-1.676-2.308-1.19-.47.235-.787.694-.867 1.213-1.1 6.983-4.382 9.95-6.514 11.17-3.192-3.086-4.243-8.08-4.6-11.03a1.66 1.66 0 0 0-2.397-1.29c-.398.2-.693.558-.832.98-4.466 13.615-16.877 14.994-16.877 14.994v4.272h49.838v-7.12c-5.695-1.422-7.12-11.4-7.12-11.4z" fill="#73af00"/><g fill="#f0aa00"><path d="M162.617 240.336c-5.696-2.848-5.696-5.696-5.696-5.696s-7.12-2.848-12.816-2.848c0 0 1.424-2.848-1.424-2.848h-8.544c-2.848 0-1.424 2.848-1.424 2.848-5.696 0-12.816 2.848-12.816 2.848s0 2.848-5.696 5.696-5.696 9.256-5.696 9.256c0 1.18.957 2.135 2.135 2.135s2.135-.957 2.135-2.135a2.11 2.11 0 0 0-.125-.691l.125-.02 14.24-9.967h22.784l14.24 9.967.125.02a2.11 2.11 0 0 0-.125.691c0 1.18.957 2.135 2.135 2.135s2.135-.957 2.135-2.135c.005.001.005-6.408-5.7-9.256z"/><path d="M166.89 257.424c-1.424 0-5.696 0-5.696-4.272s5.696-4.272 5.696-4.272l-8.544-2.848c-2.848 9.967 2.848 9.967 2.848 22.783 0 11.48-12.816 18.51-17.088 18.51s-5.696 2.848-5.696 2.848-1.424-2.848-5.696-2.848-17.088-7.03-17.088-18.51c0-12.816 5.696-12.816 2.848-22.783l-8.544 2.848s5.696 0 5.696 4.272-4.272 4.272-5.696 4.272-7.12 0-7.12 7.12 7.12 15.664 17.088 21.36 5.696 11.392 18.51 11.392 8.544-5.696 18.51-11.392 17.088-14.24 17.088-21.36-5.695-7.12-7.118-7.12z"/></g><path d="M135.562 235.136l-3.444-1.548c-.572-.257-1.206-.317-1.816-.175-2.22.513-7.728 2.2-11.827 6.924l4.272 1.424 12.815-6.625zm5.695 0l3.444-1.548c.572-.257 1.206-.317 1.816-.175 2.22.513 7.728 2.2 11.827 6.924l-4.272 1.424-12.815-6.625zm-2.344.928l2.597-2.597c.14-.14.14-.364 0-.503s-.364-.14-.503 0l-2.597 2.597-2.597-2.597c-.14-.14-.364-.14-.503 0s-.14.364 0 .503l2.597 2.597-2.597 2.597c-.14.14-.14.364 0 .503.07.07.16.105.252.105s.182-.035.252-.105l2.597-2.597 2.597 2.597c.07.07.16.105.252.105s.182-.035.252-.105c.14-.14.14-.364 0-.503l-2.6-2.597z" fill="#73af00"/><path d="M166.89 248.88c0-2.422-2.29-3.47-4.272-3.924v-1.128c-2.68-.252-4.176-1.258-6.776-3.03l-3.507-2.29c-5.007-3.04-8.855-3.48-11.077-3.375v2.353h-5.696v-2.353c-2.22-.106-6.07.333-11.077 3.375-1.37.833-2.506 1.606-3.507 2.29-2.6 1.77-4.094 2.778-6.776 3.03v1.128c-1.983.454-4.272 1.5-4.272 3.924l4.272-1.424v.65c4.04-.298 6.352-1.848 9.18-3.775.96-.653 2.045-1.394 3.32-2.167 3.252-1.977 5.78-2.588 7.435-2.732v2.33h8.544v-2.33c1.655.145 4.183.756 7.435 2.732a73.41 73.41 0 0 1 3.32 2.167c2.828 1.927 5.14 3.478 9.18 3.775v-.65l4.272 1.424z" fill="#f5f5f5"/><path d="M155.497 226.435v-1.762h-3.966c.693-.595 1.12-1.296 1.12-2.135 0-3.934-8.95-4.984-14.24-4.984s-14.24 1.05-14.24 4.984c0 .84.426 1.54 1.12 2.135h-3.966v1.762c-3.486.778-6.336 2.65-6.486 2.75l1.58 2.37c.04-.026 3.957-2.61 7.754-2.61v-1.424h28.48v1.424c3.797 0 7.715 2.582 7.754 2.61l1.58-2.37c-.15-.1-3-1.972-6.487-2.75zm-11.39-2.156v-1.08c0-.697-.656-1.208-1.33-1.04l-4.365 1.09-4.365-1.09a1.07 1.07 0 0 0-1.331 1.04v1.08c-3.2-.47-5.09-1.253-5.606-1.74.77-.732 4.543-2.135 11.302-2.135s10.53 1.405 11.302 2.135c-.516.488-2.408 1.27-5.606 1.74z" fill="#3cc8ff"/><path d="M138.588 242.298l.36 1.08 1.14.01c.148.001.2.2.1.277l-.917.678.344 1.087c.044.14-.116.257-.236.17l-.928-.663-.928.663c-.12.086-.28-.03-.236-.17l.344-1.087-.917-.678c-.12-.087-.057-.276.1-.277l1.14-.01.36-1.08c.047-.14.244-.14.292 0zm-5.583.364l.472 1.038 1.136-.1c.147-.014.227.167.12.266l-.84.77.456 1.045c.06.136-.088.268-.216.195l-.992-.562-.853.757c-.1.098-.283-.001-.253-.146l.228-1.118-.983-.577c-.127-.075-.086-.268.06-.285l1.133-.128.245-1.114c.03-.144.227-.164.288-.03zm-5.732 1.538l.686.912 1.084-.354c.14-.046.258.114.173.234l-.654.934.672.92c.087.12-.028.28-.17.237l-1.1-.334-.67.924c-.086.12-.276.06-.278-.087l-.02-1.14-1.085-.35c-.14-.045-.142-.244-.002-.3l1.078-.37-.002-1.14c-.001-.15.187-.212.276-.094zm-5.745 2.412l.8.812 1.027-.494c.134-.064.27.078.203.2l-.525 1.012.788.824c.102.107.01.28-.136.258l-1.126-.187-.54 1.004c-.07.13-.265.096-.287-.05l-.17-1.128-1.122-.204c-.146-.026-.173-.223-.04-.3l1.02-.5-.152-1.13c-.02-.146.158-.234.262-.128zm22.35-3.95l-.472 1.038-1.136-.1c-.147-.014-.227.167-.12.266l.84.77-.456 1.045c-.06.136.088.268.216.195l.992-.562.853.757c.1.098.283-.001.253-.146l-.228-1.118.983-.577c.127-.075.086-.268-.06-.285l-1.133-.128-.245-1.114c-.03-.144-.227-.164-.288-.03zm5.722 1.538l-.686.912-1.084-.354c-.14-.046-.258.114-.173.234l.654.934-.672.92c-.087.12.028.28.17.237l1.1-.334.67.924c.086.12.276.06.278-.087l.02-1.14 1.085-.35c.14-.045.142-.244.002-.3l-1.078-.37.002-1.14c.001-.15-.188-.212-.276-.094zm5.755 2.412l-.8.812-1.027-.494c-.134-.064-.27.078-.203.2l.525 1.012-.788.824c-.102.107-.01.28.136.258l1.126-.187.54 1.004c.07.13.265.096.287-.05l.17-1.128 1.122-.204c.146-.026.173-.223.04-.3l-1.02-.5.152-1.13c.02-.146-.158-.234-.262-.128z" fill="#f5f5f5"/><path d="M128.575 276.47l7.254 4.85h8.765l4.05-3.47-3.116 1.246h-10.324z" fill="#8c5a28"/><path d="M133.515 270.2l-.7 7.06-3.186-1.216c-.001-.001 1.465-3.403 3.886-5.845z" fill="#f5f5f5"/><path d="M139.8 267.42h.47v12.02h-.47zm4.36 1h.47v11h-.47zm-8.7 0h.47v11h-.47z" fill="#8c5a28"/><g fill="#f5f5f5"><path d="M141.478 278.294H138.6c-.3 0-.542-.243-.542-.542V276.3c0-.3.243-.542.542-.542h2.877c.3 0 .542.243.542.542v1.453a.54.54 0 0 1-.542.542z"/><use xlink:href="#B"/><use xlink:href="#B" y="-3.114"/><use xlink:href="#C"/><use xlink:href="#D"/><use xlink:href="#E"/><use xlink:href="#C" x="-8.701"/><use xlink:href="#D" x="-8.701"/><use xlink:href="#E" x="-8.701"/><path d="M135.93 268.432v1.42l2.094-.724zm8.695 0v1.42l2.094-.724zm-4.355-1.032v1.42l2.093-.724z"/></g><path d="M134.71 257.8l2.52 1.685h3.046l1.407-1.206-1.083.433h-3.586z" fill="#8c5a28"/><path d="M136.425 255.626l-.243 2.453-1.107-.423c-.001.001.51-1.18 1.35-2.03z" fill="#f5f5f5"/><path d="M138.6 254.65h.163v4.177h-.163zm1.52.35h.163v3.824h-.163zm-3.02 0h.163v3.824h-.163z" fill="#8c5a28"/><g fill="#f5f5f5"><use xlink:href="#F"/><use xlink:href="#F" y="-1.175"/><path d="M139.2 256.178h-1a.19.19 0 0 1-.19-.19v-.504a.19.19 0 0 1 .19-.19h1a.19.19 0 0 1 .19.19v.504a.19.19 0 0 1-.19.19zm1.412 2.257h-.814a.19.19 0 0 1-.19-.19v-.504a.19.19 0 0 1 .19-.19h.814a.19.19 0 0 1 .19.19v.504c-.002.105-.086.2-.2.2z"/><path d="M140.612 257.353h-.814a.19.19 0 0 1-.19-.19v-.366a.19.19 0 0 1 .19-.19h.814a.19.19 0 0 1 .19.19v.366c-.002.104-.086.2-.2.2zm0-1.073h-.814a.19.19 0 0 1-.19-.19v-.247a.19.19 0 0 1 .19-.19h.814a.19.19 0 0 1 .19.19v.247a.19.19 0 0 1-.189.189zm-3.022 2.155h-.814a.19.19 0 0 1-.19-.19v-.504a.19.19 0 0 1 .19-.19h.814a.19.19 0 0 1 .19.19v.504a.19.19 0 0 1-.189.189zm0-1.082h-.814a.19.19 0 0 1-.19-.19v-.366a.19.19 0 0 1 .19-.19h.814a.19.19 0 0 1 .19.19v.366a.19.19 0 0 1-.189.189zm0-1.073h-.814a.19.19 0 0 1-.19-.19v-.247a.19.19 0 0 1 .19-.19h.814a.19.19 0 0 1 .19.19v.247a.19.19 0 0 1-.19.19zm-.327-1.272v.494l.728-.25zm3.02 0v.494l.727-.25zm-1.514-.355v.494l.727-.252zm-5.845-4.348h-1.848c-.667 0-1.212-.545-1.212-1.212s.545-1.212 1.212-1.212h1.848c.667 0 1.212.545 1.212 1.212s-.545 1.212-1.212 1.212zm14.055 0h-1.22a1.21 1.21 0 0 1-1.212-1.212c0-.67.543-1.212 1.212-1.212h1.22a1.21 1.21 0 0 1 1.212 1.212c0 .67-.543 1.212-1.212 1.212zm8.66 1.825h-1.074c-.383 0-.693-.3-.693-.693v-.115c0-.383.3-.693.693-.693h1.074c.383 0 .693.3.693.693v.115c0 .383-.3.693-.693.693z"/></g><defs ><path id="B" d="M141.478 274.912H138.6c-.3 0-.542-.243-.542-.542v-1.453c0-.3.243-.542.542-.542h2.877c.3 0 .542.243.542.542v1.453c0 .3-.243.542-.542.542z"/><path id="C" d="M145.568 278.294h-2.343c-.3 0-.542-.243-.542-.542V276.3c0-.3.243-.542.542-.542h2.343c.3 0 .542.243.542.542v1.453a.54.54 0 0 1-.542.542z"/><path id="D" d="M145.568 275.18h-2.343c-.3 0-.542-.243-.542-.542v-1.055c0-.3.243-.542.542-.542h2.343c.3 0 .542.243.542.542v1.055c0 .3-.243.542-.542.542z"/><path id="E" d="M145.568 272.094h-2.343c-.3 0-.542-.243-.542-.542v-.712c0-.3.243-.542.542-.542h2.343c.3 0 .542.243.542.542v.712a.54.54 0 0 1-.542.542z"/><path id="F" d="M139.2 258.435h-1c-.104 0-.19-.084-.19-.19v-.504c0-.104.084-.19.19-.19h1c.104 0 .19.084.19.19v.504c0 .105-.084.19-.19.19z"/></defs></svg>