<svg xmlns="http://www.w3.org/2000/svg" viewBox="0 0 512 512"><style><![CDATA[.B{fill:#ff4b55}.C{fill:#f5f5f5}]]></style><path d="M0 385.38c0 21.176 17.167 38.345 38.345 38.345h435.31c21.165 0 38.324-17.148 38.344-38.307v-73.51H0v73.47z" fill="#41479b"/><path d="M473.656 88.275H38.345C17.167 88.275 0 105.443 0 126.62v73.47h512v-73.51c-.02-21.158-17.18-38.307-38.344-38.307z" class="B"/><path d="M0 200.09h512v111.8H0z" class="C"/><path d="M194.2 203.03h24.717v28.25H194.2zm49.44 0h24.717v28.25H243.64zm-24.7 28.25h24.717v28.25H218.93zm74.15-28.25h24.717v28.25H293.08zm-24.72 28.25h24.717v28.25H268.36z" class="B"/><path d="M218.93 203.03h24.717v28.25H218.93zm49.43 0h24.717v28.25H268.36zm-74.16 28.25h24.717v28.25H194.2zm49.44 0h24.717v28.25H243.64zm49.44 0h24.717v28.25H293.08z" class="C"/><path d="M243.64 259.53h24.717v28.25H243.64zm-24.7 28.25h24.717v28.25H218.93zm49.43 0h24.717v28.25H268.36z" class="B"/><path d="M218.93 259.53h24.717v28.25H218.93zm49.43 0h24.717v28.25H268.36zm-24.72 28.25h24.717v28.25H243.64z" class="C"/><g class="B"><path d="M317.793 203.035v79.448c0 34.128-27.666 61.793-61.793 61.793s-61.793-27.666-61.793-61.793v-79.448h123.586m4.413-4.415H189.792v83.862c0 36.507 29.7 66.207 66.207 66.207s66.207-29.7 66.207-66.207V198.62z"/><path d="M218.924 287.78v-28.25h-24.717v22.953c0 1.79.118 3.546.267 5.297h24.45z"/></g><path d="M317.526 287.78h-24.45v28.248h14.774a61.39 61.39 0 0 0 9.676-28.248zM204.15 316.028h14.774V287.78h-24.45a61.38 61.38 0 0 0 9.676 28.248z" class="C"/><path d="M293.075 287.78h24.45l.267-5.297V259.53h-24.717v28.25zm-74.15 44.053v-15.805H204.15c3.957 6.105 8.972 11.44 14.774 15.805zm88.926-15.805h-14.774v15.806c5.8-4.367 10.815-9.7 14.774-15.806z" class="B"/><path d="M218.924 331.833c7.195 5.415 15.567 9.345 24.717 11.202v-27.007h-24.717v15.805zm49.434 11.2c9.15-1.857 17.523-5.788 24.717-11.202v-15.805h-24.717v27.007z" class="C"/><path d="M268.358 316.028H243.64v27.008c3.993.81 8.126 1.24 12.36 1.24a62.05 62.05 0 0 0 12.359-1.241l-.001-27.008z" class="B"/><path d="M211.27 156.3c-5.378-.832-10.88-1.432-16.5-1.78a189.97 189.97 0 0 0-12.398 11.15l11.823 28.545c7.913-3.277 16.02-5.9 24.247-7.867l-7.183-30.05zm59.732-4.696c-4.833-2.445-9.837-4.706-15.003-6.765-5.165 2.06-10.17 4.32-15.003 6.765l2.4 30.803c8.382-.657 16.804-.657 25.186 0l2.4-30.803zm58.614 14.056a190.81 190.81 0 0 0-12.398-11.15 180.28 180.28 0 0 0-16.49 1.78l-7.184 30.05a161.46 161.46 0 0 1 24.247 7.867l11.824-28.545z" fill="#4173cd"/><path d="M240.996 151.604a183.1 183.1 0 0 0-15.894-4.346 187.24 187.24 0 0 0-13.832 9.033l7.183 30.05a161.46 161.46 0 0 1 24.952-3.933l-2.4-30.803zm59.734 4.696c-4.422-3.175-9.035-6.193-13.832-9.033a183.72 183.72 0 0 0-15.894 4.346l-2.4 30.803a161.32 161.32 0 0 1 24.952 3.933l7.184-30.05z" fill="#41479b"/><path d="M241.96 163.925c-9.345.73-18.646 2.2-27.817 4.385l-1.437-6a186.48 186.48 0 0 1 28.77-4.535l.483 6.16zm.965 12.32a167.54 167.54 0 0 0-25.907 4.084l-1.437-6a173.6 173.6 0 0 1 26.862-4.234l.482 6.16z" class="B"/><path d="M285.326 178.32l-6.482-1.022c-3.562-.492-6.215-3.516-5.906-6.915s3.713-5.863 7.6-5.327l6.96 1.097c3.86.682 6.357 4.082 5.604 7.406-.75 3.332-4.218 5.386-7.765 4.76z" fill="#ffe15a"/><path d="M320.157 188.497c-8.215-3.402-16.636-6.125-25.175-8.168l1.437-6.01a173.74 173.74 0 0 1 26.103 8.468l-2.365 5.71z" class="B"/><path d="M317.952 169.958c-.873 2.407-3.817 3.552-6.6 2.647s-4.483-3.55-3.78-6.012 3.686-3.765 6.636-2.806 4.616 3.764 3.742 6.17zm-113.528-3.364c.703 2.464-1 5.1-3.78 6.012s-5.725-.245-6.6-2.647c-.874-2.408.8-5.214 3.742-6.17s5.934.346 6.636 2.806zm50.166-4.046c.006 2.047-1.834 3.714-4.114 3.784s-4.222-1.48-4.342-3.52 1.72-3.806 4.1-3.883 4.336 1.572 4.345 3.62zm11.275.262c-.12 2.044-2.065 3.593-4.342 3.52s-4.12-1.737-4.114-3.784 1.953-3.697 4.344-3.62 4.23 1.842 4.112 3.883zm-5.858 9.27c-.057 2.047-1.85 3.657-4.008 3.657s-3.95-1.6-4.008-3.657c-.056-2.04 1.737-3.755 4.008-3.75 2.27-.005 4.064 1.707 4.008 3.75z" fill="#ffe15a"/></svg>