<svg xmlns="http://www.w3.org/2000/svg" viewBox="0 0 512 512"><path d="M473.655 423.724h-435.3C17.167 423.724 0 406.557 0 385.38V126.62c0-21.177 17.167-38.345 38.345-38.345h435.3c21.177 0 38.345 17.167 38.345 38.345v258.76c0 21.177-17.167 38.344-38.345 38.344z" fill="#f5f5f5"/><g fill="#73af00"><path d="M244.426 360.546c4.884-3.648 9.128-4.84 15.694-6.034s13.506-3.228 17.144-4.2c3.67-1.016-12.328 4.84-16.403 6-4.007 1.227-16.435 4.245-16.435 4.245zm26.44-10.272c-1.314-8.252 1.952-16.94 9.43-20.4 1.752 5.996-3.604 16.166-9.43 20.4zm12.765-4.277c-4.008-6.904 2.728-15.763 7.746-20.074 2.324 4.143-1.752 16.503-7.746 20.074zm11.753-5.322c-4.244-5.894.8-16.2 6.198-20.276 2.088 5.828-.001 16.267-6.198 20.276zm11.787-7.41c-3.906-5.558-1.177-14.18 4.446-19.805 4 4.65.572 14.686-4.446 19.805zm9.467-7.4c-3.267-5.255.74-17.816 5.994-21.287 2.256 4.648.572 17.785-5.994 21.287zm7.51-1.986c-.943-7.5 12.192-15.83 17.548-15.594-.573 6.128-6.198 12.864-17.548 15.594zm-7.343 8.485c6.198-6.33 18.155-6.33 22.397-5.018-1.1 3.706-15.255 11.756-22.397 5.018z"/><path d="M308.316 338.722c8.7-2.325 14.314-4.2 19.5 1.177-3.67 4.65-17.75 3.27-19.5-1.177zm-12.393 5.626c8.32-4.447 18.4 2.12 19.905 5.927-9.262 3.872-20.074-4.952-19.905-5.927zm-11.386 6.364c7.578-2.897 16.268.943 19.703 5.187-4.04 1.954-14.617 4.075-19.703-5.187zm-10.37 3.266c8.7-.975 17.007 5.625 18.827 9.364-11.05 1.077-15.326-2.256-18.827-9.364zm-2.796 6.568c-4.817-3.648-9.06-4.84-15.628-6.034s-13.506-3.228-17.2-4.2c-3.604-1.016 12.393 4.84 16.468 6 4.04 1.227 16.37 4.245 16.37 4.245zm-26.44-10.272c1.38-8.252-1.887-16.94-9.43-20.4-1.684 5.996 3.672 16.166 9.43 20.4zm-12.697-4.277c4.076-6.904-2.728-15.763-7.746-20.074-2.325 4.143 1.752 16.503 7.746 20.074zm-11.82-5.322c4.3-5.894-.742-16.2-6.13-20.276-2.12 5.828.001 16.267 6.13 20.276zm-11.755-7.41c3.873-5.558 1.18-14.18-4.412-19.805-4.007 4.65-.572 14.686 4.412 19.805zm-9.43-7.4c3.334-5.255-.742-17.816-5.996-21.287-2.324 4.648-.573 17.785 5.996 21.287zm-7.578-1.986c1-7.5-12.125-15.83-17.48-15.594.573 6.128 6.098 12.864 17.48 15.594zm7.4 8.485c-6.198-6.33-18.153-6.33-22.397-5.018 1.177 3.706 15.255 11.756 22.397 5.018zm8.486 6.367c-8.7-2.325-14.314-4.2-19.5 1.177 3.604 4.65 17.75 3.27 19.5-1.177zm12.326 5.626c-8.285-4.447-18.322 2.12-19.838 5.927 9.263 3.872 20.007-4.952 19.838-5.927zm11.35 6.364c-7.544-2.897-16.2.943-19.635 5.187 4.075 1.954 14.652 4.075 19.635-5.187zm10.508 3.266c-8.757-.975-17.075 5.625-18.86 9.364 11.114 1.077 15.358-2.256 18.86-9.364z"/></g><path d="M147.966 229.194s-2.412 3.146 1.685 11.114 1.154 17.164 5.568 20.106.185 8.778 5.242 12.664 18.345 12.83 27.517 13.877 18.082-8.222 23.374-1.382 4.136 11.66 9.128 12.193 4.992-1.675 4.625-4.985 3.3-12.505 11.77-12.505 17.422-1.007 31.7-6.39 21.266-7.956 23.105-16.416 7.068-18.462 17.143-13.828 9.398 2.46 12.495.236 13.482 4.21 15.83.81-18.377-20.224-17.21-29.1 3.96-16.247 12.495-16.975 6.327-10.29 15.155-15.073 12.894-5.33 19.872-12.412 25.33-21.42 25.33-21.42-35.7 17.097-42.84 18.66-10.087 11.863-29.95 17.38-20.966 7.724-36.046 11.034c-13.58 2.982-44.26 1.98-62.408-3.843a3.65 3.65 0 0 0-4.768 3.793c.747 8.82.538 24.68-10.176 27.142 0 0-14.603-10.906-23.798-6.125s-15.735 21.834-22.58 19.192-7.74-13.587-12.258-7.746z" fill="#ffc850"/></svg>