<svg xmlns="http://www.w3.org/2000/svg" viewBox="0 0 512 512"><path d="M13.696 97.252C5.325 104.286 0 114.828 0 126.617v258.76c0 11.794 5.33 22.338 13.704 29.373L256 256.003 13.696 97.252z" fill="#f5f5f5"/><path d="M13.704 414.75c6.665 5.597 15.257 8.972 24.64 8.972h435.3c21.177 0 38.345-17.167 38.345-38.345V256.003H256L13.704 414.75z" fill="#73af00"/><path d="M473.885 88.28H38.115c-9.298.055-17.81 3.418-24.42 8.973L256 256.003h256V126.617c0-21.1-17.045-38.214-38.115-38.338z" fill="#82afff"/><path d="M91.766 216.137l-8.94 26.806-28.257.22c-1.55.012-2.19 2-.946 2.9l22.732 16.787-8.523 26.942c-.467 1.478 1.215 2.7 2.475 1.798l22.99-16.43 22.99 16.43c1.26.9 2.942-.32 2.475-1.798l-8.523-26.942 22.732-16.787c1.246-.92.604-2.898-.946-2.9l-28.257-.22-8.94-26.806c-.49-1.47-2.57-1.47-3.06 0z" fill="#ff4b55"/></svg>