<svg xmlns="http://www.w3.org/2000/svg" viewBox="0 0 512 512"><style><![CDATA[.B{fill:#41479b}.C{fill:#ff4b55}.D{fill:#ffe15a}]]></style><path d="M0 385.38c0 21.177 17.167 38.345 38.345 38.345h435.3c21.177 0 38.345-17.167 38.345-38.345v-45.517H0v45.517z" class="C"/><path d="M473.655 88.276h-435.3C17.167 88.276 0 105.443 0 126.62V256h512V126.62c0-21.178-17.167-38.345-38.345-38.345z" class="D"/><path d="M0 256h512v83.86H0z" class="B"/><path d="M246.788 260.953l64.48-55.268v79.987c0 13.48-10.93 24.408-24.408 24.408-6.03 0-11.847-2.232-16.33-6.265l-23.743-21.368v-21.494z" class="D"/><path d="M280.8 292.404L262.14 275.6v-27.815l33.775-28.95v66.828a9.07 9.07 0 0 1-9.056 9.056c-2.24 0-4.393-.826-6.06-2.325z" class="C"/><path d="M271.352 239.9v31.617l15.352 13.862v-58.636l9.212-7.896v66.828a9.07 9.07 0 0 1-9.056 9.056 9.04 9.04 0 0 1-6.059-2.325l-18.66-16.794v-27.815l9.21-7.897z" class="B"/><path d="M265.212 260.953l-64.48-55.268v79.987c0 13.48 10.93 24.408 24.408 24.408 6.03 0 11.847-2.232 16.33-6.265l23.743-21.368v-21.494z" class="D"/><path d="M231.2 292.404l18.66-16.794v-27.815l-33.775-28.95v66.828a9.07 9.07 0 0 0 9.056 9.056c2.24 0 4.393-.826 6.06-2.325z" class="C"/><path d="M240.648 239.9v31.617l-15.352 13.862v-58.636l-9.212-7.896v66.828a9.07 9.07 0 0 0 9.056 9.056 9.04 9.04 0 0 0 6.059-2.325l18.66-16.794v-27.815l-9.2-7.897zm68.392-33.94h4.414v26.45h-4.414zm-110.54 0h4.414v26.45H198.5z" class="B"/><g fill="#5a4646"><path d="M246.788 193.404s6.14-29.17-15.352-25.33-21.493 9.978-46.057 22.26c0 0 27.635 6.14 39.916 3.07 0 0 9.212 12.28 18.423 15.352h9.212l-6.142-15.353zm18.424 0s-6.14-29.17 15.352-25.33 21.493 9.978 46.057 22.26c0 0-27.635 6.14-39.916 3.07 0 0-9.212 12.28-18.423 15.352h-9.212l6.142-15.353z"/><path d="M265.212 208.756H246.79V193.3a9.1 9.1 0 0 1 9.098-9.098h.226a9.1 9.1 0 0 1 9.098 9.098l.001 15.466z"/></g><circle cx="256" cy="193.4" r="6.141" fill="#e6e1cd"/><path d="M242.823 189.438l11.546 6.166a2.49 2.49 0 0 0 2.937-.437c.974-.974.974-2.552 0-3.527l-7.448-7.448h-1.79c-2.896 0-5.244 2.348-5.244 5.246z" fill="#ffd0af"/><path d="M246.827 190.333h-9.25l4.047-4.738a4 4 0 0 1 3.042-1.402h5.192v3.108c0 1.674-1.358 3.032-3.032 3.032z" fill="#ffaf94"/><path d="M282.186 208.764c-2.072-2.458-2.514-5.717-1.504-8.54 2.954-.516 6.1.47 8.162 2.93 1.77 2.1 2.283 4.772 1.784 7.272l2.2 3.964c.04-.225.032-.448.096-.673.724-2.546 2.743-4.348 5.135-4.958 1.713 1.778 2.483 4.373 1.76 6.918-.622 2.2-2.227 3.777-4.18 4.58l2.247 5.7c.04-.118.044-.238.092-.355 1-2.45 3.206-4.02 5.65-4.362 1.506 1.955 1.986 4.62.987 7.07-.875 2.144-2.7 3.558-4.764 4.12 1.067 4.213 1.775 8.683 1.775 13.183h-3.07c0-3.922-.602-7.85-1.5-11.608-1.895.612-4.012.48-5.845-.64-2.236-1.37-3.416-3.778-3.36-6.223 2.154-1.16 4.835-1.203 7.07.168.08.05.135.12.213.173-.658-1.9-1.358-3.683-2.077-5.365-1.843.87-4.012 1.005-6.002.07-2.374-1.114-3.8-3.38-4.026-5.815 2.006-1.386 4.657-1.722 7.023-.62-.846-1.625-1.608-2.985-2.206-4.002-2.115-.244-4.152-1.218-5.636-2.98zm-52.372 0c2.07-2.458 2.514-5.717 1.504-8.54-2.954-.516-6.1.47-8.162 2.93-1.77 2.1-2.283 4.772-1.784 7.272l-2.2 3.964c-.04-.225-.032-.448-.096-.673-.724-2.546-2.743-4.348-5.135-4.958-1.713 1.778-2.483 4.373-1.76 6.918.622 2.2 2.227 3.777 4.18 4.58l-2.247 5.7c-.04-.118-.044-.238-.092-.355-1-2.45-3.206-4.02-5.65-4.362-1.506 1.955-1.986 4.62-.986 7.07.875 2.144 2.7 3.558 4.764 4.12-1.067 4.213-1.775 8.683-1.775 13.183h3.07c0-3.922.602-7.85 1.5-11.608 1.895.612 4.012.48 5.844-.64 2.237-1.37 3.416-3.778 3.36-6.223-2.154-1.16-4.835-1.203-7.07.168-.08.05-.135.12-.213.173.658-1.9 1.358-3.683 2.077-5.365 1.843.87 4.012 1.005 6.002.07 2.374-1.114 3.8-3.38 4.026-5.815-2.006-1.386-4.657-1.722-7.023-.62.845-1.625 1.608-2.985 2.206-4.002 2.115-.244 4.152-1.218 5.636-2.98z" fill="#8cb400"/><path d="M256 276.306l-64.48-55.268v79.987c0 13.48 10.93 24.408 24.408 24.408 6.03 0 11.847-2.232 16.33-6.265L256 297.8v-21.494z" class="D"/><path d="M221.987 307.756l18.66-16.794v-27.815l-33.775-28.95v66.828a9.07 9.07 0 0 0 9.056 9.056 9.04 9.04 0 0 0 6.059-2.325z" class="C"/><path d="M231.436 255.252v31.617l-15.352 13.862v-58.637l-9.212-7.896v66.828a9.07 9.07 0 0 0 9.056 9.056 9.04 9.04 0 0 0 6.059-2.325l18.66-16.794v-27.815l-9.21-7.896z" class="B"/><path d="M256 276.306l64.48-55.268v79.987c0 13.48-10.93 24.408-24.408 24.408-6.03 0-11.847-2.232-16.33-6.265L256 297.8v-21.494z" class="D"/><path d="M290.013 307.756l-18.66-16.794v-27.815l33.775-28.95v66.828a9.07 9.07 0 0 1-9.056 9.056 9.04 9.04 0 0 1-6.059-2.325z" class="C"/><path d="M280.564 255.252v31.617l15.352 13.862v-58.637l9.212-7.896v66.828a9.07 9.07 0 0 1-9.056 9.056 9.04 9.04 0 0 1-6.059-2.325l-18.66-16.794v-27.815l9.21-7.896z" class="B"/><ellipse cx="256" cy="254.81" rx="30.705" ry="46.06" fill="#69c3ff"/><path d="M228.365 267.095h55.268l3.07-12.28-13.993 2.333c-2.807.468-5.678-.332-7.84-2.184l-15.884-13.615c-1.42-1.216-3.228-1.886-5.097-1.886a7.83 7.83 0 0 0-5.538 2.294l-9.988 9.988v15.35z" fill="#009b64"/><path d="M253.087 252.75l5.274-3.37-9.374-8.034c-1.42-1.216-3.228-1.886-5.097-1.886a7.83 7.83 0 0 0-5.538 2.294l-9.988 9.988v3.07l15.352-3.07 2.714 1.357c2.127 1.064 4.655.93 6.657-.35z" fill="#f5f5f5"/><path d="M228.365 267.095l3.07 18.422 15.352 15.353H256l12.28-3.07 12.283-12.283 3.07-18.422z" fill="#5aa0e6"/><path d="M256 303.94c-18.624 0-33.775-22.04-33.775-49.128s15.15-49.128 33.775-49.128 33.775 22.04 33.775 49.128S274.624 303.94 256 303.94zm0-92.113c-15.236 0-27.635 19.284-27.635 42.986S240.762 297.8 256 297.8s27.634-19.284 27.634-42.987-12.398-42.986-27.634-42.986z" fill="#ffc88c"/><g fill="#e1e1e1"><path d="M234.34 300.595c-2.574-3.554-6.406-5.865-10.746-5.865s-8.172 2.31-10.746 5.865c4.4 1.217 7.982 4.78 9.683 9.48.685 1.892 1.064 3.968 1.064 6.15-.001-7.597 4.588-13.923 10.745-15.63z"/><path d="M226.03 310.28s-.24 4.094-2.34 6.013l-.088-.072c-2.1-1.92-2.34-6.013-2.34-6.013l4.766.072z"/></g><path d="M294.4 311.616h-76.8c-.838 0-1.516-.68-1.516-1.516v-.038c0-.838.68-1.516 1.516-1.516h76.8c.838 0 1.516.68 1.516 1.516v.038c0 .837-.678 1.516-1.516 1.516z" fill="#966446"/><path d="M271.427 316.222H240.57a6.07 6.07 0 0 1-6.066-6.066v-.15a6.07 6.07 0 0 1 6.066-6.066h30.856a6.07 6.07 0 0 1 6.066 6.066v.15a6.07 6.07 0 0 1-6.066 6.066z" fill="#be915a"/><path d="M228.365 308.546H217.62c-.847 0-1.535.687-1.535 1.535s.687 1.535 1.535 1.535h10.746v-3.07z" fill="#b9b9b9"/><path d="M256 316.222v28.054l-12.28-3.5 6.14-24.564z" class="C"/><path d="M252.93 316.222l-6.14 21.494-12.28-3.07 9.212-18.423z" class="B"/><path d="M240.648 316.222l-9.212 12.282 9.212 3.07 6.14-15.352z" class="D"/><path d="M256 316.222v28.054l12.28-3.5-6.14-24.564z" class="C"/><path d="M259.07 316.222l6.14 21.494 12.28-3.07-9.212-18.423z" class="B"/><path d="M271.352 316.222l9.212 12.282-9.212 3.07-6.14-15.352z" class="D"/><path d="M193.728 247.482l-4.414-4.448v-22h4.414zm128.918-4.448l-4.414 4.448v-26.447h4.414z" class="B"/></svg>