<svg xmlns="http://www.w3.org/2000/svg" viewBox="0 0 512 512"><path d="M473.655 423.724h-435.3C17.167 423.724 0 406.557 0 385.38V126.62c0-21.177 17.167-38.345 38.345-38.345h435.3c21.177 0 38.345 17.167 38.345 38.345v258.76c0 21.177-17.167 38.344-38.345 38.344z" fill="#f5f5f5"/><path d="M512 229.517H282.483V88.276h-52.966v141.24H0v52.966h229.517v141.24h52.966v-141.24H512zm-361.93-82.684l-25.888 2.642 2.643-25.888a93.96 93.96 0 0 1-24.129 0l2.643 25.888-25.888-2.642c1.037 8.018 1.037 16.1 0 24.128l25.888-2.642-2.643 25.888a93.96 93.96 0 0 1 24.129 0l-2.643-25.888 25.888 2.642c-1.037-8.018-1.037-16.1 0-24.128zm282.482 0l-25.888 2.642 2.643-25.888a93.96 93.96 0 0 1-24.129 0l2.643 25.888-25.888-2.642c1.037 8.018 1.037 16.1 0 24.128l25.888-2.642-2.643 25.888a93.96 93.96 0 0 1 24.129 0l-2.643-25.888 25.888 2.642c-1.036-8.018-1.036-16.1 0-24.128zM150.07 341.04l-25.888 2.642 2.643-25.888a93.96 93.96 0 0 1-24.129 0l2.643 25.888-25.888-2.642c1.037 8.018 1.037 16.1 0 24.128l25.888-2.642-2.643 25.888a93.96 93.96 0 0 1 24.129 0l-2.643-25.888 25.888 2.642c-1.037-8.017-1.037-16.1 0-24.128zm282.482 0l-25.888 2.642 2.643-25.888a93.96 93.96 0 0 1-24.129 0l2.643 25.888-25.888-2.642c1.037 8.018 1.037 16.1 0 24.128l25.888-2.642-2.643 25.888a93.96 93.96 0 0 1 24.129 0l-2.643-25.888 25.888 2.642c-1.036-8.017-1.036-16.1 0-24.128z" fill="#ff4b55"/></svg>