<svg xmlns="http://www.w3.org/2000/svg" viewBox="0 0 512 512"><path d="M473.655 423.724h-435.3C17.167 423.724 0 406.557 0 385.38V126.62c0-21.177 17.167-38.345 38.345-38.345h435.3c21.177 0 38.345 17.167 38.345 38.345v258.76c0 21.177-17.167 38.344-38.345 38.344z" fill="#ff4b55"/><path d="M459.034 141.24v229.517H52.966V141.24h406.068" fill="#ffe15a"/><path d="M52.966 141.24L256 256 52.966 370.76zm406.068 0L256 256l203.034 114.76z" fill="#73af00"/><circle cx="256" cy="256" r="35.31" fill="#ff4b55"/><path d="M258.23 230.127l5.523 16.558 17.454.136c2.26.018 3.197 2.9 1.38 4.244l-14.04 10.37 5.266 16.642c.682 2.155-1.77 3.937-3.6 2.623L256 270.55l-14.2 10.15c-1.838 1.314-4.3-.468-3.6-2.623l5.266-16.642-14.04-10.37c-1.818-1.343-.88-4.226 1.38-4.244l17.454-.136 5.523-16.558c.713-2.146 3.745-2.146 4.46-.002zm-.9-130.135l3.263 9.783 10.313.08c1.335.01 1.9 1.715.814 2.507l-8.297 6.126 3.1 9.833c.403 1.273-1.047 2.326-2.133 1.55l-8.4-5.995-8.4 5.997c-1.086.777-2.536-.277-2.133-1.55l3.1-9.833-8.297-6.126c-1.074-.793-.52-2.497.814-2.507l10.313-.08 3.263-9.783c.424-1.268 2.216-1.268 2.64-.002zm116.137 0l3.263 9.783 10.313.08c1.335.01 1.9 1.715.814 2.507l-8.297 6.126 3.1 9.833c.403 1.273-1.047 2.326-2.133 1.55l-8.4-5.997-8.4 5.997c-1.086.777-2.536-.277-2.133-1.55l3.1-9.833-8.297-6.126c-1.074-.793-.52-2.497.814-2.507l10.313-.08 3.263-9.783c.426-1.266 2.217-1.266 2.64 0zm-232.277 0l3.263 9.783 10.313.08c1.335.01 1.9 1.715.814 2.507l-8.297 6.126 3.1 9.833c.403 1.273-1.047 2.326-2.133 1.55l-8.4-5.997-8.4 5.997c-1.086.777-2.536-.277-2.133-1.55l3.1-9.833-8.297-6.126c-1.074-.793-.52-2.497.814-2.507l10.313-.08 3.263-9.783c.425-1.266 2.217-1.266 2.64 0zm116.14 282l3.263 9.783 10.313.08c1.335.01 1.9 1.715.814 2.507l-8.297 6.126 3.1 9.833c.403 1.273-1.047 2.326-2.133 1.55l-8.4-5.995-8.4 5.997c-1.086.777-2.536-.277-2.133-1.55l3.1-9.833-8.297-6.126c-1.074-.793-.52-2.497.814-2.507l10.313-.08 3.263-9.783c.424-1.27 2.216-1.27 2.64-.002zm116.137 0l3.263 9.783 10.313.08c1.335.01 1.9 1.715.814 2.507l-8.297 6.126 3.1 9.833c.403 1.273-1.047 2.326-2.133 1.55l-8.4-5.997-8.4 5.997c-1.086.777-2.536-.277-2.133-1.55l3.1-9.833-8.297-6.126c-1.074-.793-.52-2.497.814-2.507l10.313-.08 3.263-9.783c.426-1.267 2.217-1.267 2.64 0zm-232.277 0l3.263 9.783 10.313.08c1.335.01 1.9 1.715.814 2.507l-8.297 6.126 3.1 9.833c.403 1.273-1.047 2.326-2.133 1.55l-8.4-5.997-8.4 5.997c-1.086.777-2.536-.277-2.133-1.55l3.1-9.833-8.297-6.126c-1.074-.793-.52-2.497.814-2.507l10.313-.08 3.263-9.783c.425-1.267 2.217-1.267 2.64 0zm-23.1-148.063H96V256c0 12.2 9.88 22.07 22.07 22.07s22.07-9.88 22.07-22.07-9.88-22.07-22.07-22.07z" fill="#ffe15a"/><path d="M140.138 278.07l-12.13-2.35L118.07 256l19.717 9.938z" fill="#ff4b55"/></svg>