<svg xmlns="http://www.w3.org/2000/svg" xmlns:xlink="http://www.w3.org/1999/xlink" viewBox="0 0 512 512"><path d="M473.655 88.276h-435.3C17.167 88.276 0 105.443 0 126.62v73.47h512v-73.47c0-21.178-17.167-38.345-38.345-38.345zM0 385.38c0 21.177 17.167 38.345 38.345 38.345h435.3c21.177 0 38.345-17.167 38.345-38.345V311.9H0v73.47z" fill="#4173cd"/><path d="M0 200.1h512v111.8H0z" fill="#f5f5f5"/><g fill="#4173cd"><path d="M257.277 241.58l3.16 9.473 9.985.077a1.35 1.35 0 0 1 .789 2.428l-8.033 5.932 3.012 9.52a1.35 1.35 0 0 1-2.066 1.501L256 264.703l-8.124 5.806a1.35 1.35 0 0 1-2.066-1.501l3.012-9.52-8.033-5.932a1.35 1.35 0 0 1 .789-2.428l9.985-.077 3.16-9.473c.41-1.225 2.145-1.225 2.555.002z"/><use xlink:href="#B"/><use xlink:href="#B" y="-50.846"/><use xlink:href="#C"/><use xlink:href="#C" y="-50.846"/></g><defs ><path id="B" d="M167.104 267.002l3.16 9.473 9.985.077a1.35 1.35 0 0 1 .789 2.428l-8.033 5.932 3.012 9.52a1.35 1.35 0 0 1-2.066 1.501l-8.124-5.806-8.124 5.806a1.35 1.35 0 0 1-2.066-1.501l3.012-9.52-8.033-5.932a1.35 1.35 0 0 1 .789-2.428l9.985-.077 3.16-9.473c.412-1.227 2.147-1.227 2.556 0z"/><path id="C" d="M347.448 267.002l3.16 9.473 9.985.077a1.35 1.35 0 0 1 .789 2.428l-8.033 5.932 3.012 9.52a1.35 1.35 0 0 1-2.066 1.501l-8.124-5.806-8.124 5.806a1.35 1.35 0 0 1-2.066-1.501l3.012-9.52-8.033-5.932a1.35 1.35 0 0 1 .789-2.428l9.985-.077 3.16-9.473c.413-1.227 2.148-1.227 2.556 0z"/></defs></svg>