<svg xmlns="http://www.w3.org/2000/svg" viewBox="0 0 512 512"><path d="M473.655 88.276h-435.3C17.167 88.276 0 105.443 0 126.62v73.47h512v-73.47c0-21.178-17.167-38.345-38.345-38.345z" fill="#fab446"/><path d="M0 385.38c0 21.177 17.167 38.345 38.345 38.345h435.3c21.177 0 38.345-17.167 38.345-38.345v-73.47H0v73.47z" fill="#73af00"/><path d="M0 200.1h512v111.8H0z" fill="#f5f5f5"/><g fill="#41479b"><path d="M256 303.448c-26.164 0-47.448-21.284-47.448-47.448s21.284-47.448 47.448-47.448 47.448 21.284 47.448 47.448-21.284 47.448-47.448 47.448zm0-86.07c-21.298 0-38.62 17.323-38.62 38.62s17.323 38.62 38.62 38.62 38.62-17.323 38.62-38.62-17.323-38.62-38.62-38.62z"/><circle cx="256" cy="256" r="5.379"/><path d="M256 256.807l-13.67 1.38-29.364-1.38v-1.614l29.364-1.38 13.67 1.38z"/><path d="M256 256.807l13.67 1.38 29.364-1.38v-1.614l-29.364-1.38-13.67 1.38z"/><path d="M255.193 256l-1.38-13.67 1.38-29.364h1.614l1.38 29.364-1.38 13.67z"/><path d="M255.193 256l-1.38 13.67 1.38 29.364h1.614l1.38-29.364-1.38-13.67z"/><path d="M255.43 256.57l-10.642-8.69L225 226.14l1.14-1.14 21.74 19.788 8.69 10.642z"/><path d="M255.43 256.57l8.69 10.642L285.86 287l1.14-1.14-19.788-21.74-10.642-8.69z"/><path d="M255.43 255.43l8.69-10.642L285.86 225l1.14 1.14-19.788 21.74-10.642 8.69z"/><path d="M255.43 255.43l-10.642 8.69L225 285.86l1.14 1.14 21.74-19.788 8.69-10.642z"/><path d="M256.31 256.746l-12.102 6.506-27.656 9.962-.618-1.49 26.6-12.512 13.157-3.957z"/><path d="M256.31 256.746l13.157-3.957 26.6-12.512-.618-1.49-27.656 9.962-12.102 6.506z"/><path d="M255.254 256.31l-6.506-12.102-9.962-27.656 1.49-.618 12.512 26.6 3.957 13.157z"/><path d="M255.254 256.31l3.957 13.157 12.512 26.6 1.49-.618-9.962-27.656-6.506-12.102z"/><path d="M255.69 256.746l-13.157-3.957-26.6-12.512.618-1.49 27.656 9.962 12.102 6.506z"/><path d="M255.69 256.746l12.102 6.506 27.656 9.962.618-1.49-26.6-12.512-13.157-3.957z"/><path d="M255.254 255.69l3.957-13.157 12.512-26.6 1.49.618-9.962 27.656-6.506 12.102z"/><path d="M255.254 255.69l-6.506 12.102-9.962 27.656 1.49.618 12.512-26.6 3.957-13.157z"/></g><circle cx="256" cy="256" r="7.256" fill="#f5f5f5"/><circle cx="256" cy="256" r="4.351" fill="#41479b"/></svg>