<svg xmlns="http://www.w3.org/2000/svg" viewBox="0 0 512 512"><path d="M473.655 88.276h-435.3C17.167 88.276 0 105.443 0 126.62v73.47h512v-73.47c0-21.178-17.167-38.345-38.345-38.345z" fill="#ff4b55"/><path d="M0 385.38c0 21.177 17.167 38.345 38.345 38.345h435.3c21.177 0 38.345-17.167 38.345-38.345v-73.47H0v73.47z" fill="#464655"/><path d="M0 200.1h512v111.8H0z" fill="#f5f5f5"/><g fill="#73af00"><path d="M308.065 233.525c-.928-.483-2.027-2.2-1.684-2.967.36-.793-.2-.725 1.696-.16 3.43.888 5.65.483 7.83-1.372l1.937-1.533 2.26 1.13c1.25.564 2.54.967 2.905.886 1.05-.242 3.07-2.825 3.027-3.713-.04-1.208.847-.886 1.3.405.928 2.422-.78 6.6-3.12 7.164-1.128.322-2.178.242-3.955-.322-2.098-.808-2.422-.808-3.55 0-2.34 1.856-5.7 2.02-8.636.483m8.835-9.344c-1.132-1.587-2.493-7.14-2.095-8.5.395-1.248.792-1.474 1.87-1.134 1.927.68 2.382 1.927 2.153 6.462-.34 3.397-.792 4.532-1.927 3.17m-75.896 24.55c-4.65 2.646-11.57 3.1-11.57 10.434-10.13.377-22.076.83-32.85.604 2.92-3.772 21.4-20.853 29.086-27.623 1.272-1.12 1.704-3.288.964-4.813l-.2-.4a3.75 3.75 0 0 0-5.958-1.074l-16.483 15.322-14.38 14.508a5.91 5.91 0 0 0-1.718 4.2l.001.103c.017 3.27 2.673 5.9 5.942 5.9h43.38c2.457 0-.565-8.543 2.6-8.543 2.207 0 2.4 3.065 2.313 6.312-.074 2.47-2.1 4.424-4.58 4.427l-56.65.222c-1.517.001-2.735-1.23-2.735-2.748v-3.305c0-2.802-3.112-4.43-5.454-2.893l-.254.162c-1.224.765-1.85 2.263-1.372 3.624.3.884.445 1.96.474 3.085.04 1.487-1.17 2.713-2.658 2.76-6.076.186-12.68.24-14.554-3.342-1.058-2.02-3.3-2.975-5.35-1.954l-.27.136c-2.148 1.074-3 3.73-1.832 5.824 2.238 3.98 4.28 8.595 3.22 15.06-.864 2.038-2.492 3.313-4.256 4.46-1.96 1.276-.73 4.262 1.57 3.837 5.574-1.03 9.415-5.442 10.6-10.642h86.42a5.74 5.74 0 0 0 5.739-5.739V257.88c-.792-5.595-6.804-5.37-9.184-9.15zm109.615-24.783l3.975 2.32c1.556.743 2.15 2.643 1.24 4.107a4.24 4.24 0 0 0-.556 1.346v37.197c2.542.527 4 .028 5.16-.77 1.308-.902 3.076-.246 3.5 1.288.877 3.263 2.313 6.45 3.08 9.352.48 1.814-.883 3.588-2.76 3.588h-14.572a2.33 2.33 0 0 1-2.336-2.336v-54.3a2.13 2.13 0 0 1 3.279-1.79z"/><path d="M332.975 233.005l.148 32.345a2.58 2.58 0 0 1-2.582 2.583h-.167a2.58 2.58 0 0 1-2.58-2.58v-26.1c0-1.42-1.67-2.18-2.737-1.245l-3.42 2.955a3.18 3.18 0 0 0-1.105 2.397l-.064 21.994a2.58 2.58 0 0 1-2.58 2.569h-.234c-1.418 0-2.57-1.14-2.58-2.557l-.087-15.238c-.006-1.436-1.704-2.186-2.784-1.24l-6.22 5.728c.15.983.908 0 1.36.755v5c-12.908-2.43-13.87 7.882-13.388 18.946a3.11 3.11 0 0 0 3.102 2.978h40.526a2.72 2.72 0 0 0 2.721-2.721v-50.38c0-1.683-1.997-2.547-3.24-1.4l-2.955 2.634a3.49 3.49 0 0 0-1.136 2.587zm-29.825 34.55c-.793-2.268 3.668-3.1 4.196-1.058.2 2.495-3.212 2.57-4.196 1.058zM169.295 286.38c1.55 0 2.797 1.286 2.797 2.796 0 1.6-1.247 2.798-2.797 2.798-1.587 0-2.874-1.2-2.874-2.798.001-1.5 1.288-2.796 2.874-2.796m92.145-61.293l2.364 1.28c1.496.707 2.086 2.566 1.17 3.945a4.43 4.43 0 0 0-.648 1.482v37.12c2.694.6 4.167.012 5.342-.857s2.854-.267 3.23 1.138c.672 2.52 1.685 5.012 2.466 7.378a4.47 4.47 0 0 1-4.237 5.874H259.76c-1.84 0-3.333-1.492-3.333-3.334V227.96c0-2.572 2.807-4.2 5.013-2.875z"/></g></svg>