<svg xmlns="http://www.w3.org/2000/svg" viewBox="0 0 512 512"><path d="M473.655 88.275h-435.3C17.167 88.275 0 105.442 0 126.62v258.76c0 21.177 17.167 38.345 38.345 38.345h435.3c21.177 0 38.345-17.167 38.345-38.345V126.62c0-21.178-17.167-38.345-38.345-38.345z" fill="#41479b"/><path d="M0 150.07h512v211.86H0z" fill="#f5f5f5"/><path d="M301.87 256l22.933-39.72h-45.865L256 176.55l-22.936 39.727H187.2L210.132 256 187.2 295.72h45.865L256 335.448l22.936-39.727H324.8L301.87 256zm.433-26.73L294.37 243l-7.933-13.74h15.866zM286.87 256l-15.433 26.73h-30.873L225.13 256l15.433-26.73h30.873L286.87 256zM256 202.533l7.936 13.746h-15.872L256 202.533zm-46.302 26.737h15.865L217.63 243l-7.932-13.74zm0 53.46l7.933-13.74 7.933 13.74h-15.866zM256 309.466l-7.936-13.746h15.872L256 309.466zM294.37 269l7.933 13.74h-15.865L294.37 269z" fill="#41479b"/></svg>