<svg xmlns="http://www.w3.org/2000/svg" viewBox="0 0 512 512"><path d="M0 385.38c0 21.177 17.167 38.345 38.345 38.345h435.3c21.177 0 38.345-17.167 38.345-38.345v-73.47H0v73.47z" fill="#73af00"/><path d="M473.655 88.276h-435.3C17.167 88.276 0 105.443 0 126.62v73.47h512v-73.47c0-21.178-17.167-38.345-38.345-38.345z" fill="#464655"/><path d="M0 200.1h512v111.8H0z" fill="#c8414b"/><g fill="#f5f5f5"><path d="M0 194.2h512v17.655H0zm0 105.94h512v17.655H0z"/><path d="M303.268 181.618c7.108-14.657 14.525-48.6 14.525-48.6s-22.072 26.845-29.182 41.5c-1.5 3.072-.858 6.605 1.294 8.995l-80.967 166.934 5.496 2.666L295.4 186.17c3.212.21 6.378-1.48 7.867-4.552z"/><path d="M208.732 181.618c-7.108-14.657-14.525-48.6-14.525-48.6s22.072 26.845 29.18 41.5c1.5 3.072.858 6.605-1.294 8.995l80.968 166.934-5.496 2.666-80.968-166.934c-3.21.21-6.377-1.48-7.866-4.552z"/></g><path d="M300.138 256c0 48.754-36.012 88.276-44.138 88.276S211.862 304.754 211.862 256s36.012-88.276 44.138-88.276 44.138 39.522 44.138 88.276z" fill="#c8414b"/><path d="M291.3 298.6c5.2-12.63 8.828-27.14 8.828-42.6s-3.628-29.96-8.828-42.6c-5.2 12.63-8.828 27.14-8.828 42.6s3.63 29.96 8.828 42.6zm-70.6-85.18c-5.2 12.63-8.828 27.14-8.828 42.6s3.628 29.96 8.828 42.6c5.2-12.63 8.828-27.14 8.828-42.6s-3.63-29.96-8.828-42.6z" fill="#464655"/><g fill="#f5f5f5"><ellipse cx="256" cy="256" rx="8.828" ry="13.241"/><path d="M257.324 167.724v75.034c2.407-5 6.676-19.815 6.676-37.517s-4.27-32.507-6.676-37.517zm-2.648 0c-2.407 5-6.676 19.814-6.676 37.517s4.27 32.508 6.676 37.517v-75.034zm2.648 101.516v75.034c2.407-5 6.676-19.815 6.676-37.517s-4.27-32.507-6.676-37.517zm-2.648 0c-2.407 5-6.676 19.814-6.676 37.517s4.27 32.508 6.676 37.517V269.24z"/></g></svg>