<svg xmlns="http://www.w3.org/2000/svg" height="683" viewBox="0 -79 512 512" width="683"><path d="M512 17.656v105.93H158.898L5.914 4.6A17.01 17.01 0 0 1 17.656 0h476.688A17.71 17.71 0 0 1 512 17.656zm0 0" fill="#4c8056"/><path d="M512 229.516V335.45c-.027 9.738-7.914 17.625-17.656 17.652H17.656c-4.36.03-8.56-1.61-11.742-4.6l152.98-118.996zm0 0" fill="#c03a2b"/><path d="M158.898 123.586H512v105.93H158.898zm0 0" fill="#e6e7e8"/><path d="M158.898 123.586v105.93L5.914 348.512A17.35 17.35 0 0 1 0 335.449V17.656A17.36 17.36 0 0 1 5.914 4.59zm0 0" fill="#2c2f38"/></svg>