<svg xmlns="http://www.w3.org/2000/svg" viewBox="0 0 512 512"><path d="M473.655 88.276h-435.3C17.167 88.276 0 105.443 0 126.62v32.276h512V126.62c0-21.178-17.167-38.345-38.345-38.345zM0 385.38c0 21.177 17.167 38.345 38.345 38.345h435.3c21.177 0 38.345-17.167 38.345-38.345v-32.276H0v32.276z" fill="#ff4b55"/><path d="M0 158.9h512v194.2H0z" fill="#f5f5f5"/><path d="M274.862 315.38l81.58-16.317c5.888-1.177 8.516-8.107 4.9-12.894a8.13 8.13 0 0 0-5.233-3.126l-86.91-13.55a4.45 4.45 0 0 1-3.7-5.126c.39-2.414 2.838-3.95 5.262-3.633l60.26 7.93c4.897.644 7.902-5.207 4.523-8.812l-4.838-5.16a12.57 12.57 0 0 0-6.785-3.746l-50.338-9.75 42.92 3.092c3.3.237 5.196-3.652 2.993-6.108l-2.2-2.453c-1.33-1.482-3.098-2.502-5.048-2.91l-42.613-8.905 30.284-.876c2.678-.077 4.04-3.252 2.25-5.246l-1.358-1.513a8.48 8.48 0 0 0-3.97-2.486l-27-7.755h21.226a2.92 2.92 0 0 0 2.677-4.078l-.715-1.65c-.858-1.982-2.515-3.51-4.56-4.205l-19.63-6.678 9.654-.03c2.87-.01 4.793-2.95 3.652-5.583-.92-2.12-2.54-3.86-4.593-4.924L256 167.724l-21.534 11.165c-2.052 1.064-3.674 2.803-4.593 4.924-1.14 2.633.783 5.574 3.652 5.582l9.654.032-19.63 6.678a7.65 7.65 0 0 0-4.559 4.205l-.716 1.65a2.92 2.92 0 0 0 2.677 4.078h21.226l-27.01 7.755a8.48 8.48 0 0 0-3.97 2.486l-1.358 1.513c-1.79 1.994-.427 5.17 2.25 5.246l30.284.876-42.613 8.905a9.35 9.35 0 0 0-5.048 2.909l-2.2 2.453c-2.204 2.455-.298 6.345 2.993 6.108l42.92-3.092-50.338 9.75a12.57 12.57 0 0 0-6.785 3.746l-4.838 5.16c-3.38 3.604-.374 9.457 4.523 8.812l60.26-7.93c2.424-.32 4.872 1.22 5.262 3.633a4.45 4.45 0 0 1-3.7 5.126l-86.91 13.55c-2.083.324-3.96 1.445-5.233 3.126-3.626 4.786-.998 11.715 4.9 12.894l81.58 16.317v10.182a20.96 20.96 0 0 1-6.138 14.819l-12.723 12.722h75.45L281 340.382a20.96 20.96 0 0 1-6.138-14.819l-.001-10.184z" fill="#73af00"/></svg>