<svg xmlns="http://www.w3.org/2000/svg" viewBox="0 0 512 512"><path d="M473.655 88.277h-435.3C19.86 88.277 4.43 101.36.808 118.772h510.386c-3.624-17.412-19.053-30.495-37.54-30.495z" fill="#ff4b55"/><path d="M.808 118.772C.28 121.306 0 123.93 0 126.622v22.645h512v-22.645a38.46 38.46 0 0 0-.808-7.85H.808z" fill="#f5f5f5"/><path d="M0 149.26h512v30.495H0z" fill="#ff4b55"/><path d="M0 179.76h512v30.495H0z" fill="#f5f5f5"/><path d="M0 229.518h8.826l.002 11.236H512v-30.496H0z" fill="#ff4b55"/><path d="M8.826 229.518H0v41.73h512v-30.493H8.828z" fill="#f5f5f5"/><path d="M0 271.25h512v30.495H0z" fill="#ff4b55"/><path d="M0 301.74h512v30.495H0z" fill="#f5f5f5"/><path d="M0 332.24h512v30.495H0z" fill="#ff4b55"/><path d="M0 385.38c0 2.7.28 5.315.807 7.85h510.386a38.52 38.52 0 0 0 .807-7.849v-22.646H0v22.646z" fill="#f5f5f5"/><path d="M38.337 423.724h435.327c18.483-.003 33.908-13.086 37.53-30.495H.807c3.622 17.41 19.046 30.492 37.53 30.495z" fill="#ff4b55"/><path d="M8.828 240.754h132.414a8.83 8.83 0 0 0 8.828-8.828V97.104a8.83 8.83 0 0 0-8.823-8.828H38.345C17.167 88.277 0 105.444 0 126.622v105.304a8.83 8.83 0 0 0 8.828 8.828z" fill="#41479b"/><path d="M72.512 127.737l-8.428 25.27-26.638.206c-2.554.02-3.614 3.28-1.56 4.797l21.43 15.825-8.035 25.398c-.77 2.435 2.003 4.45 4.08 2.965l21.674-15.49 21.672 15.5c2.078 1.485 4.85-.53 4.08-2.965l-8.035-25.398 21.43-15.825c2.055-1.517.995-4.778-1.56-4.797l-26.638-.206-8.428-25.27c-.8-2.424-4.237-2.424-5.046-.001z" fill="#f5f5f5"/></svg>