<svg xmlns="http://www.w3.org/2000/svg" viewBox="0 0 512 512"><style><![CDATA[.B{fill:#ff4b55}.C{fill:#f5f5f5}]]></style><path d="M317.793 97.104v15.133H509.2c-5.692-14.047-19.457-23.96-35.545-23.96h-164.7a8.83 8.83 0 0 1 8.828 8.827z" class="B"/><path d="M317.793 112.237v23.96H512v-9.577a38.24 38.24 0 0 0-2.799-14.385l-191.408.002z" class="C"/><path d="M317.8 136.2H512v23.96H317.8z" class="B"/><path d="M317.8 160.15H512v23.96H317.8z" class="C"/><path d="M317.8 184.12H512v23.96H317.8z" class="B"/><path d="M317.8 208.08H512v23.96H317.8z" class="C"/><path d="M317.8 232.04H512V256H317.8z" class="B"/><path d="M317.793 271.133a8.83 8.83 0 0 1-8.828 8.828H512V256H317.793v15.133z" class="C"/><path d="M8.83 279.96h-.002A8.83 8.83 0 0 1 0 271.133v32.788h512v-23.96H8.83z" class="B"/><path d="M0 303.92h512v23.96H0z" class="C"/><path d="M0 327.88h512v23.96H0z" class="B"/><path d="M0 351.85h512v23.96H0z" class="C"/><path d="M0 385.38a38.24 38.24 0 0 0 2.799 14.385h506.4c1.8-4.443 2.8-9.295 2.8-14.385v-9.576H0v9.576z" class="B"/><path d="M38.345 423.724h435.3c16.088 0 29.854-9.913 35.545-23.96H2.8c5.692 14.048 19.458 23.96 35.546 23.96z" class="C"/><path d="M8.828 279.96h300.138a8.83 8.83 0 0 0 8.828-8.828V97.104a8.83 8.83 0 0 0-8.828-8.828H38.345C17.167 88.277 0 105.444 0 126.622v144.51a8.83 8.83 0 0 0 8.828 8.828z" fill="#41479b"/><path d="M83.862 184.023c0-33.387 27.1-60.47 60.456-60.47 8.393 0 16.373 1.718 23.64 4.814.943.402 1.654-.9.807-1.5-12.025-8.186-26.73-12.67-42.505-11.85-34.68 1.802-63.036 29.736-65.278 64.4-2.607 40.308 29.3 73.7 68.96 73.7 14.336 0 27.662-4.417 38.73-11.906.852-.577.146-1.892-.802-1.5-7.243 3.072-15.192 4.776-23.55 4.776-33.357-.002-60.457-27.084-60.457-60.472m138.197-.012l25.558-9.9c1.263-.5.833-2.376-.518-2.268l-27.308 2.187 18.766-20.06c.926-1-.28-2.5-1.45-1.818L213.4 166l8.186-26.176c.404-1.292-1.338-2.13-2.095-1l-15.354 22.745-3.94-27.148c-.194-1.34-2.13-1.342-2.326-.001l-2.516 17.178-1.044 7.27-.402 2.702-15.354-22.727c-.758-1.122-2.502-.282-2.095 1L184.668 166l-23.716-13.836c-1.17-.682-2.376.83-1.45 1.818l18.765 20.06-27.315-2.186c-1.35-.108-1.782 1.78-.518 2.268l25.58 9.9-25.582 9.9c-1.265.5-.833 2.376.518 2.268l27.316-2.187-18.766 20.1c-.925 1 .284 2.5 1.453 1.816l23.715-13.885-8.216 26.154c-.406 1.292 1.336 2.133 2.095 1l15.354-22.726.402 2.766 1.044 7.206 2.517 17.224c.196 1.342 2.132 1.34 2.326-.001l3.94-27.193 15.354 22.745c.758 1.122 2.5.285 2.095-1l-8.186-26.175 23.715 13.885c1.17.684 2.377-.825 1.453-1.816l-18.767-20.1 27.3 2.187c1.35.108 1.782-1.78.518-2.268l-25.56-9.893z" fill="#ffe15a"/></svg>