<svg xmlns="http://www.w3.org/2000/svg" xmlns:xlink="http://www.w3.org/1999/xlink" viewBox="0 0 512 512"><path d="M473.655 88.273H341.333V423.72h132.322c21.177 0 38.345-17.167 38.345-38.345V126.618c0-21.178-17.167-38.345-38.345-38.345z" fill="#ff4b55"/><path d="M170.67 88.277h170.67v335.45H170.67z" fill="#41479b"/><path d="M38.345 88.273C17.167 88.273 0 105.44 0 126.618v258.76c0 21.177 17.167 38.345 38.345 38.345h132.322V88.273H38.345z" fill="#ff4b55"/><g fill="#f9cf02"><path d="M85.69 227.025c-13.34 0-24.776-8.038-29.814-19.52-.003.175-.052.338-.052.513 0 16.494 13.372 29.866 29.866 29.866s29.865-13.372 29.865-29.866c0-.175-.05-.338-.052-.512-5.038 11.48-16.473 19.518-29.813 19.518z"/><circle cx="85.69" cy="199.877" r="21.72"/><path d="M72.114 159.15a13.58 13.58 0 0 0 13.575 13.575 13.58 13.58 0 0 0 13.575-13.575c0-5.43-3.394-6.1-3.394-8.145s2.036-4.75-2.036-8.145c2.036 3.394-1.357 4.073-1.357 7.466s1.357 3.394 1.357 6.1c0 1.5-1.216 2.714-2.714 2.714s-2.714-1.216-2.714-2.714c0-2.714 2.714-5.43 2.714-9.503s-.68-5.43-2.714-8.824-5.43-6.1-2.714-8.824c-4.073 1.357-2.036 6.787-2.036 10.182s-2.714 5.43-2.714 9.503 2.036 4.75 2.036 7.466c0 1.5-1.216 2.714-2.714 2.714s-2.714-1.216-2.714-2.714c0-2.714 1.357-2.714 1.357-6.1s-3.394-4.073-1.357-7.466c-4.073 3.394-2.036 6.1-2.036 8.145-.006 2.036-3.4 2.714-3.4 8.145zM25.96 245.557v125.838a2.24 2.24 0 0 0 2.241 2.241h22.667a2.24 2.24 0 0 0 2.241-2.241V245.557a2.24 2.24 0 0 0-2.241-2.241H28.2a2.24 2.24 0 0 0-2.241 2.241zm92.3 0v125.838a2.24 2.24 0 0 0 2.241 2.241h22.667a2.24 2.24 0 0 0 2.241-2.241V245.557a2.24 2.24 0 0 0-2.241-2.241H120.5a2.24 2.24 0 0 0-2.241 2.241z"/><use xlink:href="#B"/><use xlink:href="#B" y="76.021"/><path d="M62.585 243.315h46.208c1.137 0 1.55 1.497.577 2.082l-21.95 13.17a3.36 3.36 0 0 1-3.459 0l-21.952-13.17c-.975-.585-.56-2.082.576-2.082zm0 114.032h46.208c1.137 0 1.55 1.497.577 2.082L87.418 372.6a3.36 3.36 0 0 1-3.459 0l-21.95-13.17c-.974-.585-.56-2.08.577-2.08zm25.755-75.8c-.856-.082-1.685-.26-2.562-.26-14.93 0-27.078 12.147-27.078 27.078 0 8.862 4.33 16.662 10.943 21.583.76.566 1.767-.252 1.397-1.127a15.66 15.66 0 0 1-1.24-6.106c0-8.825 7.193-16.002 16.026-15.975 4.643.014 9.094-2.28 11.15-6.443 4.25-8.6-.936-17.17-8.636-18.75zm-2.56 17.883a5.42 5.42 0 0 1-5.416-5.416 5.41 5.41 0 0 1 5.416-5.415c2.99 0 5.415 2.424 5.415 5.415s-2.425 5.416-5.415 5.416zm16.132-12.648c-.76-.566-1.767.253-1.397 1.127a15.64 15.64 0 0 1 1.24 6.105c0 8.826-7.194 16.003-16.026 15.976-4.643-.014-9.095 2.28-11.15 6.443-4.25 8.612.938 17.172 8.638 18.75.856.082 1.685.26 2.562.26 14.93 0 27.078-12.147 27.078-27.078-.002-8.86-4.33-16.66-10.945-21.583zm-16.133 41.35a5.42 5.42 0 0 1-5.416-5.416 5.41 5.41 0 0 1 5.416-5.415c2.99 0 5.415 2.424 5.415 5.415a5.42 5.42 0 0 1-5.415 5.416z"/></g><defs ><path id="B" d="M58.54 267.276v6.377a2.24 2.24 0 0 0 2.241 2.241h49.817a2.24 2.24 0 0 0 2.241-2.241v-6.377a2.24 2.24 0 0 0-2.241-2.241H60.78a2.24 2.24 0 0 0-2.241 2.241z"/></defs></svg>