<svg xmlns="http://www.w3.org/2000/svg" viewBox="0 0 512 512"><path d="M473.655 423.724h-435.3C17.167 423.724 0 406.557 0 385.38V126.62c0-21.177 17.167-38.345 38.345-38.345h435.3c21.177 0 38.345 17.167 38.345 38.345v258.76c0 21.177-17.167 38.344-38.345 38.344z" fill="#ff4b55"/><path d="M297.95 277.96l67.433-49.478h-83.51L256 148.845l-25.875 79.638h-83.51l67.433 49.478-25.675 79.022 67.56-48.29.066.05.066-.05 67.56 48.29-25.675-79.022zm13.527-31.823l-19.273 14.142-4.595-14.142h23.868zm-76.694 25.14l8.17-25.14h26.094l8.17 25.14L256 286.845l-21.216-15.568zM256 205.983l7.3 22.5h-14.622l7.312-22.5zm-55.478 40.155H224.4l-4.595 14.142-19.273-14.142zm21.215 65.293l7.302-22.472 11.91 8.74-19.213 13.733zm61.225-22.472l7.302 22.472-19.212-13.732 11.9-8.74z" fill="#5a8250"/></svg>