<svg xmlns="http://www.w3.org/2000/svg" viewBox="0 0 512 512"><path d="M473.655 88.276h-435.3C17.167 88.276 0 105.443 0 126.62v63.54h512v-63.54c0-21.178-17.167-38.345-38.345-38.345z" fill="#5aa587"/><path d="M0 385.38c0 21.177 17.167 38.345 38.345 38.345h435.3c21.177 0 38.345-17.167 38.345-38.345v-63.54H0v63.54z" fill="#ffe15a"/><path d="M0 204.1h512v103.8H0z" fill="#464655"/><path d="M0 200.092v4h512V190.16H0zm0 111.816v9.933h512v-13.943H0z" fill="#f5f5f5"/><path d="M12.828 413.993l193.27-153.417c2.946-2.34 2.946-6.812 0-9.15L12.828 98.007C4.96 105.03 0 115.244 0 126.62v258.76c0 11.376 4.96 21.6 12.828 28.613z" fill="#ff4b55"/><path d="M81.814 198.577l12.905 38.695 40.79.317c2.28.018 3.226 2.93 1.39 4.284l-32.813 24.23 12.303 38.89c.687 2.175-1.788 3.974-3.644 2.647l-33.185-23.72-33.185 23.72c-1.856 1.326-4.332-.472-3.644-2.647l12.303-38.89-32.812-24.23c-1.835-1.355-.89-4.266 1.39-4.284l40.79-.317 12.905-38.695c.724-2.163 3.785-2.163 4.507 0z" fill="#ffe15a"/><path d="M77.196 270.447l-3.2 3.2H47.328l7.28-26.717 2.975-1.487-4.776 23.82c-.04.294.02.587.215.822.177.235.45.352.744.352h23.43zm6.4 4.453c-1.155.86-2.564 1.35-4.032 1.35s-2.877-.5-4.032-1.35l4.032-4.032 4.032 4.032zm28.204-1.243H85.123l-3.2-3.2h23.428c.294 0 .567-.117.744-.352a1.04 1.04 0 0 0 .215-.822l-4.776-23.82 2.975 1.487 7.282 26.717zm-7.632-5.157H80.543v-24.37c3.954-3.347 14.386-1.057 18.8.313l4.816 24.056zm-25.583-24.38v24.37H54.96l4.815-24.055c4.424-1.37 14.856-3.66 18.8-.314z" fill="#f5f5f5"/><g fill="#464655"><path d="M114.033 274.38L106.3 246c-.078-.255-.254-.49-.51-.607l-5.167-2.583c-.02-.02-.04-.02-.078-.02-.02 0-.02-.02-.04-.04-.627-.215-14.934-4.874-20.943-.313-6.01-4.56-20.317.098-20.943.313l-.04.04c-.04 0-.058 0-.078.02l-5.167 2.583c-.255.117-.43.352-.51.607l-7.732 28.38c-.078.294-.02.607.157.842.195.235.49.392.783.392H73.44c1.624 1.624 3.817 2.583 6.126 2.583s4.502-.96 6.126-2.583h27.402c.294 0 .587-.157.783-.392.176-.235.235-.548.157-.842zm-33.5-30.26c3.954-3.347 14.386-1.057 18.81.313l4.815 24.055H80.543c0 .001 0-24.368 0-24.368zm-20.767.314c4.424-1.37 14.856-3.66 18.81-.313v24.37H54.96l4.815-24.056zm-12.448 29.222l7.28-26.717 2.975-1.487-4.776 23.82c-.04.294.02.587.215.822.177.235.45.352.744.352h23.428l-3.2 3.2H47.328zm32.236 2.584c-1.468 0-2.877-.49-4.032-1.35l4.032-4.032 4.032 4.032c-1.154.86-2.563 1.35-4.032 1.35zm5.56-2.584l-3.2-3.2h23.428c.294 0 .567-.117.744-.352.195-.235.255-.53.215-.822l-4.776-23.82 2.975 1.487 7.28 26.717H85.123z"/><path d="M104.034 218.558a2.51 2.51 0 0 1-3.211-.285l-1.302-1.302v3.187l-7.967 7.967h-3.187L75.62 240.872h-3.187L47.926 265.38a2.25 2.25 0 0 0-.544 2.306l1.153 3.46-4.78 4.78h-3.187l-9.743 9.743c-.778.778-.778 2.04 0 2.82l6.43 6.43c.928.928 2.45.87 3.304-.127l14.35-17.272 1.593-4.78 3.187-3.187 6.374 9.56 4.78-4.78-5.1-7.648 1.27-1.27a3.16 3.16 0 0 0 0-4.471l-.95-.95.895-.895c6.8 5.828 14.967 7.335 22.742 4.002l-2.663-6.214c-6.424 2.753-11.67.45-15.32-2.55l13.464-13.464-.53-2.656 3.718-3.718h3.187l23.9-23.9-11.423 7.962z"/><path d="M56.5 215.378l-3.187 3.187c-.88.88-.88 2.306 0 3.187l.53.53-5.31 1.063-14.34 14.34 7.967 7.967 14.34-14.34L57.563 226l2.125 2.125 1.593-1.593 53 53 3.187-3.187-53-53 1.593-1.593-6.374-6.374a2.25 2.25 0 0 0-3.186-.001z"/></g></svg>