<svg xmlns="http://www.w3.org/2000/svg" viewBox="0 0 512 512"><path d="M0 385.38c0 21.177 17.167 38.345 38.345 38.345h435.3c21.177 0 38.345-17.167 38.345-38.345v-73.47H0v73.47z" fill="#ff4b55"/><path d="M473.655 88.276h-435.3C17.167 88.276 0 105.443 0 126.62v73.47h512v-73.47c0-21.178-17.167-38.345-38.345-38.345z" fill="#ffe15a"/><path d="M0 200.1h512v111.8H0z" fill="#73af00"/><path d="M261.032 144.96l26.435 79.263 83.552.648c5.097.04 7.2 6.545 3.1 9.57l-67.214 49.635 25.203 79.663c1.537 4.86-3.996 8.88-8.142 5.916L256 321.068l-67.976 48.587c-4.147 2.964-9.68-1.056-8.142-5.916l25.203-79.663-67.214-49.635c-4.1-3.028-1.986-9.533 3.1-9.57l83.552-.648 26.435-79.263c1.612-4.835 8.452-4.835 10.064 0z" fill="#f5f5f5"/></svg>