<svg xmlns="http://www.w3.org/2000/svg" viewBox="0 0 512 512"><path d="M473.655 88.275h-435.3C17.167 88.275 0 105.442 0 126.62v258.76c0 21.177 17.167 38.345 38.345 38.345h435.3c21.177 0 38.345-17.167 38.345-38.345V126.62c0-21.178-17.167-38.345-38.345-38.345z" fill="#f5f5f5"/><path d="M229.517 256L13.052 97.813C5.054 104.84 0 115.137 0 126.62v258.76c0 21.177 17.167 38.345 38.345 38.345h191.172L79.144 256h150.373zm-25.7 156.248H11.476v-301.37l182.888 133.647H53.442l150.374 167.724z" fill="#41479b"/><path d="M70.6 263.66l-17.158-19.138h140.922L11.476 110.876v301.37h192.34z" fill="#ff4b55"/><path d="M67.345 296.398l7.066 14.583 13.4-9.096a.86.86 0 0 1 1.334.77l-1.17 16.162 16.162-1.17a.86.86 0 0 1 .77 1.334l-9.096 13.4 14.583 7.068a.86.86 0 0 1 0 1.54l-14.583 7.066 9.096 13.4a.86.86 0 0 1-.77 1.334l-16.162-1.17 1.17 16.162a.86.86 0 0 1-1.334.77l-13.4-9.096-7.066 14.583a.86.86 0 0 1-1.54 0l-7.066-14.583-13.4 9.096a.86.86 0 0 1-1.334-.77l1.17-16.162-16.162 1.17a.86.86 0 0 1-.77-1.334l9.096-13.4L22.746 341a.86.86 0 0 1 0-1.54l14.583-7.068-9.096-13.4a.86.86 0 0 1 .77-1.334l16.162 1.17-1.17-16.162a.86.86 0 0 1 1.334-.77l13.4 9.096 7.066-14.583a.86.86 0 0 1 1.54 0zm18.35-84.338l-6.135-4.2 5.4-5.66-7.697-1.405 2.632-7.367-7.603 1.847-.6-7.8-6.194 4.78-3.714-6.886-3.714 6.886-6.194-4.78-.6 7.8-7.603-1.847 2.632 7.367-7.697 1.405 5.4 5.66-6.135 4.2c-7.74-3.614-14.547-8.895-19.904-15.427 3.598 20.96 21.815 36.93 43.804 36.93s40.206-15.968 43.804-36.93c-5.355 6.533-12.162 11.813-19.902 15.427z" fill="#f5f5f5"/></svg>