<svg xmlns="http://www.w3.org/2000/svg" viewBox="0 0 512 512"><path d="M473.655 88.275h-435.3C17.167 88.275 0 105.442 0 126.62v73.47h512v-73.47c0-21.178-17.167-38.345-38.345-38.345z" fill="#f5f5f5"/><path d="M0 385.378c0 21.177 17.167 38.345 38.345 38.345h435.3c21.177 0 38.345-17.167 38.345-38.345v-73.47H0v73.47z" fill="#73af00"/><g fill="#ff4b55"><path d="M0 200.09h512v111.8H0z"/><path d="M38.345 88.275C17.167 88.275 0 105.442 0 126.62v258.76c0 21.177 17.167 38.345 38.345 38.345h94.07V88.275h-94.07z"/></g><path d="M36.056 161.442l-1.436.178v6.287l1.436.353v-6.818zm21.747 11.983l-5.73-.6-15.08 13.4 5.27 1.005L57.8 173.424zm22.687-21.33v-1.3H53.74v1.923H80.5zm-19.805-38.26c0 1.884 2.84 3.475 6.2 3.475s6.2-1.6 6.2-3.475-2.84-3.475-6.2-3.475-6.2 1.592-6.2 3.475zm-5.798 46.757c-6.04-.03-12.066.192-16.993.658v7.422c5.8 1.242 12.533 2.194 16.993 2.668v-10.748zm-31.11 36.628c2.387-.05 7.63-.994 11.18-3.767 1.1-.86 2.98-2.442 5.62-4.736-1.8-.367-4.796-.812-6.398-1.033l-10.402 9.536zm34.556-48.253v-3.374l-1.395-2.076-4.107 2.987 1.44 2.463h4.063zM26.728 164.2c-.013.055-.045.183.16.45.762.977 2.968 1.9 5.895 2.76v-5.516c-3.515.582-5.817 1.353-6.056 2.308zm46.99-2.632v-7.004H60.17v17.108h3.445a10.12 10.12 0 0 0 10.103-10.104zm-21.775-25.442L35.05 111.97c.27.995.925 2.866 2.452 6.366 1.97 4.518 6.755 13.177 10.716 20.15l3.724-2.358zm-2.814 3.957l2.774 4.824 4.007-2.914-2.935-4.344-3.846 2.434zm9.204 31.557v-11.005l-1.608-.03v10.913l1.608.12zm1.838-32.12h13.548v1.923H60.17zm32.377 9.332v.115h.7a.92.92 0 0 1 .919.919v3.76a.91.91 0 0 1-.92.918h-.7v.115a.92.92 0 0 0 .918.918h15.5a.92.92 0 0 0 .918-.918v-5.827a.92.92 0 0 0-.918-.919h-15.5a.92.92 0 0 0-.919.918zM109.9 197.17l-10.345-9.485-6.398 1.033 5.62 4.738c3.495 2.727 8.63 3.684 11.123 3.714zm-21.257-45.734v1.3h3.675v-1.923h-3.675zm2.81 35.806c.977-.313 3.32-.7 5.278-1.007l-22.214-19.823a11.96 11.96 0 0 1-2.476 3.606l.585.522 18.827 16.702zm-49.77-32.564v-.115h-.7a.92.92 0 0 1-.919-.918v-3.76a.92.92 0 0 1 .919-.919h.7v-.115a.92.92 0 0 0-.919-.919h-15.5a.92.92 0 0 0-.918.919v5.827a.92.92 0 0 0 .918.918h15.5c.507.003.92-.4.92-.917zm3.904-2.583v-1.3h-3.675v1.923h3.675zm35.308-5.6l-4.107-2.987-1.234 1.835v3.614h3.902l1.44-2.462zm-19.497-12.61h11.095l-2.442-2.708h-6.2zm-1.228 1.924h13.548v1.866H60.17zm6.716-16.673c-.893 0-1.73-.115-2.526-.285v10.383h5.1V118.85c-.812.178-1.67.296-2.583.296zm-6.716 26.06h13.5a.9.9 0 0 1 .06-.338v-1.585H60.17v1.923zm17.645-3.213l4.007 2.914 2.774-4.824-3.846-2.434-2.935 4.344zM60.17 147.05h13.548v1.923H60.17zm25.336-8.566c3.96-6.972 8.744-15.63 10.716-20.15 1.532-3.5 2.185-5.38 2.455-6.372-1.857 2.18-9.623 13.443-16.895 24.163l3.724 2.358z" fill="#f5f5f5"/><path d="M112.45 197.022l-11.98-10.985a.9.9 0 0 0-.744-.233l-.64.087c-.017-.017-.023-.04-.042-.055L75.167 164.53c.244-.95.386-1.938.386-2.96v-7.004h5.792c.746.97 1.906 1.608 3.22 1.608s2.476-.637 3.22-1.608h2.92v.115a2.76 2.76 0 0 0 2.755 2.755h15.5a2.76 2.76 0 0 0 2.755-2.755v-5.827a2.76 2.76 0 0 0-2.755-2.755H93.466a2.76 2.76 0 0 0-2.755 2.755v.115H87.8c-.746-.97-1.906-1.608-3.22-1.608-.998 0-1.9.374-2.61.97 3.096-5.3 12.823-22.1 15.947-29.26 3.35-7.682 3.08-8.674 2.29-9.31-.836-.67-1.894.1-2.293.393-1.537 1.117-16.44 23.134-22.348 31.9v-7.246c0-.02-.01-.038-.01-.057l-.001-.002c-.02-.31-.195-.57-.45-.72l-3.787-4.2v-11.55c2.2-.94 3.617-2.564 3.617-4.454 0-2.978-3.53-5.312-8.038-5.312s-8.038 2.334-8.038 5.312c0 1.906 1.453 3.538 3.674 4.473v11.596l-3.715 4.12c-.28.158-.476.446-.476.79v7.486c-5.793-8.607-20.96-31.022-22.508-32.15-.4-.3-1.46-1.06-2.294-.393-.793.637-1.063 1.63 2.29 9.31 3.025 6.932 12.238 22.9 15.63 28.72-.542-.267-1.143-.43-1.786-.43-1.316 0-2.476.637-3.22 1.608H43.52v-.115a2.76 2.76 0 0 0-2.755-2.755H25.263a2.76 2.76 0 0 0-2.755 2.755v5.827a2.76 2.76 0 0 0 2.755 2.755h15.5a2.76 2.76 0 0 0 2.755-2.755v-.115h2.92c.746.97 1.906 1.608 3.22 1.608s2.476-.637 3.222-1.608h5.448v4.23c-8.516-.182-32.093-.2-33.385 4.963-.12.48-.132 1.222.495 2.024 2.485 3.183 15.08 5.506 24.214 6.734l-14.976 13.32c-.02.017-.026.04-.043.057l-.64-.087a.9.9 0 0 0-.744.233l-11.98 10.985c-.362.33-.4.888-.084 1.265.397.478 1.406.71 2.755.71 3.32 0 8.707-1.416 12.14-4.097 2.83-2.2 10.67-9.084 23.304-20.43l1.07-.96h3.154a11.86 11.86 0 0 0 7.01-2.295l.778.695 26.237 23c3.434 2.684 8.82 4.097 12.14 4.097 1.35 0 2.358-.233 2.756-.71.318-.377.28-.935-.082-1.265zm-52.28-25.35v-17.108h13.548v7.004a10.12 10.12 0 0 1-10.104 10.104H60.17zM32.785 167.4c-2.926-.85-5.132-1.782-5.895-2.76-.207-.266-.175-.393-.16-.45.24-.956 2.54-1.726 6.056-2.308v5.516zm2.265-55.44c1.9 2.227 9.638 13.463 16.892 24.157l-3.724 2.358c-3.96-6.972-8.744-15.63-10.716-20.15-1.527-3.5-2.182-5.37-2.452-6.366zm21.886 31.55l1.395 2.076v3.374h-4.064l-1.44-2.463 4.108-2.987zm-5.034 1.4l-2.774-4.824 3.846-2.434 2.935 4.344-4.007 2.914zm6.43 15.727v11.005a52.94 52.94 0 0 1-1.608-.12v-10.913l1.608.028zm-20.438.614c4.928-.466 10.954-.687 16.993-.658v10.748c-4.46-.473-11.204-1.426-16.993-2.668v-7.422zm-3.273.37l1.436-.178v6.817l-1.436-.353v-6.286zm17.453 11.204c2.404.294 4.418.495 5.73.6L42.268 187.24c-.978-.312-3.318-.707-5.27-1.005l15.077-13.41zm-11.498 15.89l-5.62 4.736c-3.55 2.774-8.792 3.718-11.18 3.767l10.402-9.537c1.602.223 4.606.667 6.398 1.034zm13.163-35.988v-1.922h26.753v1.922H53.74zm19.347-38.892c0 1.884-2.84 3.475-6.2 3.475s-6.2-1.59-6.2-3.475 2.84-3.475 6.2-3.475 6.2 1.592 6.2 3.475zM60.17 141.447v-1.923h13.548v1.923H60.17zm13.548 1.836v1.585a.9.9 0 0 0-.06.338H60.17v-1.923h13.548zm-13.548-5.597v-1.866h13.548v1.866H60.17zm9.882-6.498l2.442 2.71H61.398l2.442-2.71h6.21zm-5.69-1.942v-10.383c.797.17 1.633.285 2.526.285.914 0 1.77-.118 2.583-.296v10.394h-5.11zm-4.19 17.798h13.548v1.923H60.17v-1.923zm36.053-28.71c-1.97 4.518-6.755 13.177-10.716 20.15l-3.724-2.358 16.895-24.163c-.27.992-.924 2.863-2.455 6.372zm-9.415 33.1v.66a2.24 2.24 0 0 1-2.239 2.239 2.24 2.24 0 0 1-2.239-2.239v-.66a2.24 2.24 0 0 1 2.239-2.239 2.24 2.24 0 0 1 2.239 2.239zm-4.985-6.528l-4.007-2.914 2.935-4.344 3.846 2.434-2.774 4.824zm-6.268.444l1.234-1.835 4.107 2.987-1.44 2.463h-3.902v-3.615zm-1.036 21.06l22.214 19.823c-1.955.3-4.3.695-5.278 1.007L72.04 170.016c1.035-1.028 1.873-2.252 2.477-3.605zm25.028 21.27l10.345 9.485c-2.493-.03-7.628-.984-11.122-3.713-1.053-.823-2.93-2.406-5.62-4.738 1.79-.368 4.795-.812 6.397-1.034zm10.34-38.83v5.827a.92.92 0 0 1-.918.918H93.466a.92.92 0 0 1-.918-.918v-.115h.69a.92.92 0 0 0 .919-.918v-3.76a.92.92 0 0 0-.919-.919h-.69v-.115a.92.92 0 0 1 .918-.919h15.5c.506.002.92.413.92.92zm-17.568 3.875h-3.674v-1.922h3.674v1.922zm-67.973 1.95v-5.827a.92.92 0 0 1 .918-.919h15.5a.92.92 0 0 1 .919.919v.115h-.69a.92.92 0 0 0-.919.919v3.76c0 .508.4.918.92.918h.69v.115a.92.92 0 0 1-.919.918h-15.5a.92.92 0 0 1-.918-.919zm17.567-3.874h3.674v1.922h-3.674v-1.922zm10 1.29a2.24 2.24 0 0 1-2.239 2.239 2.24 2.24 0 0 1-2.239-2.239v-.66a2.24 2.24 0 0 1 2.239-2.239 2.24 2.24 0 0 1 2.239 2.239v.66z" fill="#d23741"/></svg>