<svg xmlns="http://www.w3.org/2000/svg" viewBox="0 0 512 512"><path d="M503.172 256H256v158.897a8.83 8.83 0 0 1-8.828 8.828h226.483c21.177 0 38.345-17.167 38.345-38.345V247.172a8.83 8.83 0 0 1-8.828 8.828zM8.828 256H256V97.103a8.83 8.83 0 0 1 8.828-8.828H38.345C17.167 88.276 0 105.443 0 126.62v138.207A8.83 8.83 0 0 1 8.828 256z" fill="#f5f5f5"/><path d="M473.655 88.276H264.828A8.83 8.83 0 0 0 256 97.104V256h247.172a8.83 8.83 0 0 0 8.828-8.828V126.62c0-21.178-17.167-38.345-38.345-38.345z" fill="#ff4b55"/><path d="M256 414.897V256H8.828A8.83 8.83 0 0 0 0 264.828V385.38c0 21.177 17.167 38.345 38.345 38.345h208.828a8.83 8.83 0 0 0 8.827-8.828zm-124.6-280.4l8.416 25.234 26.6.206c3.444.026 4.872 4.422 2.1 6.467l-21.398 15.8 8.023 25.362c1.038 3.284-2.7 6-5.502 3.997L128 196.087l-21.64 15.468c-2.802 2.003-6.54-.714-5.502-3.997l8.023-25.362-21.398-15.8c-2.77-2.046-1.342-6.44 2.1-6.467l26.6-.206 8.416-25.234c1.1-3.267 5.712-3.267 6.8-.001z" fill="#4173cd"/><path d="M387.4 302.21l8.416 25.234 26.6.206c3.444.026 4.872 4.422 2.1 6.467l-21.398 15.8 8.023 25.362c1.038 3.284-2.7 6-5.502 3.997L384 363.81l-21.64 15.468c-2.802 2.003-6.54-.714-5.502-3.997l8.023-25.362-21.398-15.8c-2.77-2.046-1.342-6.44 2.1-6.467l26.6-.206 8.416-25.234c1.1-3.268 5.712-3.268 6.8-.001z" fill="#ff4b55"/></svg>