<svg xmlns="http://www.w3.org/2000/svg" viewBox="0 0 512 512"><path d="M473.655 88.276h-435.3C17.167 88.276 0 105.443 0 126.62v73.47h512v-73.47c0-21.178-17.167-38.345-38.345-38.345z" fill="#ff4b55"/><path d="M0 385.38c0 21.177 17.167 38.345 38.345 38.345h435.3c21.177 0 38.345-17.167 38.345-38.345v-73.47H0v73.47z" fill="#41479b"/><path d="M0 200.1h512v111.8H0z" fill="#f5f5f5"/><path d="M256 211.862c-24.376 0-44.138 19.76-44.138 44.138s19.762 44.138 44.138 44.138 44.138-19.76 44.138-44.138-19.762-44.138-44.138-44.138zm0 77.426c-18.385 0-33.288-14.903-33.288-33.288s14.903-33.288 33.288-33.288 33.288 14.903 33.288 33.288-14.903 33.288-33.288 33.288z" fill="#ff4b55"/><circle cx="256" cy="256" r="15.31" fill="#41479b"/><path d="M256.998 244.403l2.467 7.4 7.8.06c1 .008 1.43 1.297.616 1.897l-6.274 4.633 2.353 7.436c.305.962-.79 1.76-1.613 1.172L256 262.467l-6.346 4.535c-.82.587-1.918-.2-1.613-1.172l2.353-7.436-6.274-4.633c-.812-.6-.394-1.89.616-1.897l7.8-.06 2.467-7.4c.32-.958 1.676-.958 1.996 0z" fill="#ffe15a"/><path d="M284.96 256.356s.875-4.046-3.43.81c0 0 .063-1.382-.06-2.52.946-1.025 2.12-3.266 1.845-8.052 0 0-.675-4.084-2.89 2.014 0 0-.605-1.8-1.248-2.795.534-1.107.946-3.125-.334-6.947 0 0-1.497-3.268-1.963 2.348 0 0-1.23-1.838-2.027-2.3.154-.906.033-2.462-1.775-4.98 0 0-1.804-2.02-.893 2.126 0 0-1.65-1.337-2.18-1.18-.274-.792-1.067-2.13-3.73-3.893 0 0-2.307-1.263.34 2.034 0 0-2.34-.928-2.312-.396s1.16 1.513 2.088 1.95c0 0-3.43.356-2.023 1.12 0 0 3.48 1.2 5.574.045.168.61.51 1.292 1.015 1.783 0 0-4.084-.792-2.978.433 0 0 3.063 2.25 6.1 1.906a5.9 5.9 0 0 0 .681 2.718s-4.87-2.603-3.947-.616c0 0 2.912 3.895 6.786 4.74-.16.866-.156 1.913.054 2.78 0 0-4.622-4.365-4.2-1.878 0 0 1.932 5.122 5.848 7.298-.32.65-.58 1.377-.676 2.056 0 0-2.692-5.76-3.213-3.292 0 0-.09 5.754 2.983 9.195-.654.544-1.295 1.305-1.688 2.052 0 0-.59-6.33-1.913-4.182 0 0-1.83 4.796-.59 8.93-.82.242-1.71.69-2.37 1.224 0 0 1.953-6.05-.1-4.6 0 0-3.674 3.975-3.955 8.447-.974-.02-2.293.33-3.25.902 0 0 2.795-5.71.545-4.567 0 0-4.008 3.274-5.043 7.523l-4.167 2.372-2.622-1.525.026-.042-9.11-7.638.18 2.498-4.575-8.182-.565 2.784-1.498-9.045-1.33 1.335.514-8.438-1.732.934 3.146-6.276-1.478.417 3.886-3.726-2.055.175 4.914-2.23-1.796-.276 4.798-2.43-2.067-.1 6.22-2.152-1.14-.996 5.383-1.588-6.45-.492 1.837-2.26-4.92 2.518.706-3.404-4.305 4.433.748-3.104-4.03 4.01.26-3.026-3.983 6.746-.514-3.02-3.3 7.574-.91-3.3-1.478 9.393-1.233-1.397 1.62 9.06-2.056-1.542 3.77 8.138-3.084-1.2c-.343 0 6.553 7.004 6.553 7.004l-3.598-.385 6.952 4.888-2.583.638 5.783 2.248-1.414 1.092 11.972.856 2.724 2.074-2.01 1.122a1.69 1.69 0 0 1-1.468.073l-3.574-1.466s.077 3.403 3.62 3.488c1.455.033 3.44-.893 5.284-1.988 1.89 1.178 3.974 2.217 5.48 2.182 3.466-.085 3.542-3.488 3.542-3.488l-3.497 1.466c-.47.2-.99.174-1.436-.073l-2.225-1.27 2.296-1.652c.872.685 3.368 1.89 8.946-.205 0 0 3.7-1.858-2.78-2.163 0 0 1.203-.883 2.015-1.72 1.063.547 3.7 1.195 8.684-1.547 0 0 3.397-2.367-3.06-1.745 0 0 .862-.84 1.54-1.695 1.114.125 3.865-.172 7.513-4.84 0 0 2.2-3.513-3.5-.397 0 0 .736-1.754.91-2.927 1.26-.608 3.176-2.26 4.68-6.812z" fill="#64c86e"/></svg>