<svg xmlns="http://www.w3.org/2000/svg" viewBox="0 0 512 512"><path d="M13.7 97.25C5.326 104.286 0 114.83 0 126.62v258.76c0 11.79 5.326 22.335 13.7 29.37L256 256 13.7 97.25z" fill="#f5f5f5"/><path d="M13.7 414.75c6.665 5.6 15.258 8.975 24.644 8.975h435.3c21.177 0 38.345-17.167 38.345-38.345V256H256L13.7 414.75z" fill="#ff4b55"/><path d="M473.655 88.276h-435.3c-9.386 0-17.98 3.378-24.644 8.975L256 256h256V126.62c0-21.178-17.167-38.345-38.345-38.345z" fill="#41479b"/><g fill="#ffe15a"><circle cx="92.69" cy="256" r="28.69"/><path d="M92.7 256l-10.76-43.034L92.7 198.62l10.758 14.345zm0 0l10.758 43.034L92.7 313.38l-10.76-14.345zm0 0l-43.035 10.76L35.3 256l14.345-10.76zm0 0l43.034-10.76L150.07 256l-14.345 10.76zm0 0l22.822-38.037 17.75-2.537-2.536 17.75zm0 0l-22.823 38.037-17.75 2.537 2.536-17.75zm0 0l-38.038-22.823-2.536-17.75 17.75 2.537zm0 0l38.037 22.823 2.536 17.75-17.75-2.537zM23.658 131.694l1.496 11.16-10.076 5.028c-1.304.65-1.03 2.588.405 2.85l11.076 2.026 1.668 11.136c.216 1.442 2.143 1.78 2.836.495l5.35-9.908 11.106 1.854c1.438.24 2.354-1.5 1.348-2.543l-7.77-8.15 5.195-10c.672-1.293-.7-2.7-2.003-2.068l-10.152 4.872-7.895-8.03c-1.02-1.038-2.777-.177-2.584 1.267zm4.444 217.212l-1.9 11.1-11.115 1.805a1.52 1.52 0 0 0-.46 2.84l9.973 5.227-1.717 11.128c-.222 1.44 1.517 2.335 2.56 1.316l8.054-7.87 10.054 5.073c1.302.657 2.7-.722 2.044-2.028l-4.996-10.1 7.93-7.993c1.027-1.035.146-2.782-1.298-2.57l-11.14 1.634-5.152-10.013c-.668-1.295-2.602-.997-2.845.44zm174.632-109.35l-6.48 9.208-10.8-3.15c-1.4-.408-2.513 1.2-1.64 2.367l6.755 9-6.337 9.308c-.82 1.205.365 2.76 1.745 2.3l10.655-3.64 6.894 8.903c.893 1.153 2.74.505 2.717-.952l-.17-11.258 10.598-3.806c1.372-.492 1.327-2.45-.066-2.878l-10.76-3.318-.344-11.255c-.042-1.46-1.917-2.02-2.756-.828z"/></g></svg>