<svg xmlns="http://www.w3.org/2000/svg" viewBox="0 0 512 512"><path d="M473.655 88.276h-435.3C17.167 88.276 0 105.443 0 126.62V256h512V126.62c0-21.178-17.167-38.345-38.345-38.345z" fill="#4173cd"/><path d="M0 256h512v83.86H0z" fill="#ffe15a"/><path d="M0 385.38c0 21.177 17.167 38.345 38.345 38.345h435.3c21.177 0 38.345-17.167 38.345-38.345v-45.517H0v45.517z" fill="#73af00"/><g fill="#ffe15a"><path d="M458.21 178.12l36.134-5.982-36.134-5.982 31.094-19.354-35.672 8.3 21.32-29.78-29.78 21.32 8.3-35.672-19.354 31.094-5.983-36.135-5.982 36.134-19.354-31.094 8.3 35.672-29.78-21.32 21.32 29.78-35.672-8.3 31.094 19.354-36.135 5.983 36.134 5.982-31.094 19.354 35.672-8.3-21.32 29.78 29.78-21.32-8.3 35.672 19.354-31.094 5.983 36.135 5.982-36.134 19.354 31.094-8.3-35.672 29.78 21.32-21.32-29.78 35.672 8.3-31.093-19.355zm-30.073 16.087c-12.19 0-22.07-9.88-22.07-22.07s9.88-22.07 22.07-22.07 22.07 9.88 22.07 22.07-9.88 22.07-22.07 22.07z"/><circle cx="428.14" cy="172.14" r="16.552"/></g></svg>