<svg xmlns="http://www.w3.org/2000/svg" viewBox="0 0 512 512"><path d="M473.655 423.724h-435.3C17.167 423.724 0 406.557 0 385.38V126.62c0-21.177 17.167-38.345 38.345-38.345h435.3c21.177 0 38.345 17.167 38.345 38.345v258.76c0 21.177-17.167 38.344-38.345 38.344z" fill="#73af00"/><path d="M105.94 202.278c.87 5.577 4.24 7.327 7.17 7.098 3.456-.268 6.487-3.428 6.487-6.766v-19.138c0-.958.78-1.74 1.74-1.74a1.74 1.74 0 0 1 1.74 1.74v19.22c0 2.3 1.142 4.466 3.057 5.76 1.17.792 2.53 1.2 3.9 1.2.873 0 1.75-.167 2.586-.5l1.74-.695c.16 16.065-.817 30.184-.835 30.443a3.48 3.48 0 0 0 3.223 3.718 3.05 3.05 0 0 0 .252.01 3.48 3.48 0 0 0 3.468-3.232c.08-1.13 1.153-16.594.83-33.715l1.052-.42a3.49 3.49 0 0 1 2.845.119 9.94 9.94 0 0 0 11.474-1.863l.627-.626c2.812-2.817 3.78-6.9 2.52-10.684l-2.963-8.9c1.602.482 3.362-.227 4.136-1.77a3.48 3.48 0 0 0-1.556-4.669l-6.96-3.48a3.48 3.48 0 0 0-4.857 4.212l5.6 16.798a3.46 3.46 0 0 1-.84 3.56l-.626.626c-.907.907-2.3 1.128-3.444.557-2.255-1.127-4.823-1.338-7.232-.724-.5-11.17-1.692-22.3-4.254-29.98-.607-1.822-2.574-2.8-4.403-2.2-1.823.605-2.808 2.575-2.2 4.4 2.507 7.52 3.6 18.978 3.987 30.372l-4.166 1.666v-19.22a8.71 8.71 0 0 0-8.7-8.7 8.71 8.71 0 0 0-8.7 8.7V200.3l-3.55-17.535c-.378-1.886-2.212-3.116-4.1-2.722a3.48 3.48 0 0 0-2.72 4.102l3.67 18.12zm6.7-29.245a3.48 3.48 0 0 0 3.479-3.48v-3.48a3.48 3.48 0 0 0-3.479-3.48 3.48 3.48 0 0 0-3.48 3.48v3.48a3.48 3.48 0 0 0 3.48 3.48zm34.797-3.48h3.48a3.48 3.48 0 0 0 3.48-3.479 3.48 3.48 0 0 0-3.48-3.48h-3.48a3.48 3.48 0 0 0-3.48 3.48 3.48 3.48 0 0 0 3.48 3.479zm-22.67 45.733l-17.4 10.44a3.48 3.48 0 0 0-1.193 4.775c.652 1.088 1.804 1.7 2.987 1.7a3.46 3.46 0 0 0 1.788-.497l17.4-10.44a3.48 3.48 0 0 0-3.582-5.967zm46.912 6.154l.082-.055c.292 1.176.793 2.314 1.606 3.27 1.414 1.665 3.534 2.502 5.93 2.304 3.4-.248 5.7-1.8 7.24-3.806.233.16.478.306.734.435 1.88.948 4.056.876 6.127-.198 5.26-2.708 6.392-8.974 6.232-12.25-.094-1.9-1.718-3.258-3.623-3.296-1.9.082-3.4 1.703-3.33 3.613.001.044.08 4.173-2.445 5.706-.412-.574-.9-1.866-1.084-2.933a3.49 3.49 0 0 0-3.709-2.895 3.49 3.49 0 0 0-3.204 3.469c-.001.506-.114 4.972-3.56 5.345-.4-.547-.408-2.85-.013-4.554a3.48 3.48 0 0 0-5.342-3.683l-1.942 1.32c-.922-20.18-3.047-43.695-3.073-43.996-.173-1.9-1.855-3.334-3.78-3.15a3.48 3.48 0 0 0-3.151 3.783c.03.322 2.488 27.53 3.245 48.306l-.535.516c-1.376-3.47-4.104-5.655-7.617-5.987-4.958-.438-10.33 2.936-12.256 7.755-1.66 4.146-.615 8.22 2.66 10.378 2.355 1.553 5.9 2.042 10.378.476-1.1 3.833-3.078 7.72-5.66 10.728-2.313 2.695-6.175 5.804-11.117 5.665-2.877-.113-5.087-1.054-6.758-2.88-4.03-4.4-3.682-12.366-3.68-12.45a3.48 3.48 0 0 0-3.283-3.657c-1.93-.204-3.56 1.363-3.667 3.283-.024.44-.53 10.9 5.464 17.5 2.95 3.245 6.87 4.982 11.65 5.17.233.01.466.013.7.013 5.82 0 11.47-2.855 15.968-8.098 4.232-4.928 7.106-11.622 7.968-17.836-.01 11.904-7.185 25.33-16.696 31.245-4.04 2.508-10.336 4.77-17.43 1.274-8.744-4.316-7.702-14.3-7.656-14.718a3.48 3.48 0 0 0-3.021-3.884c-1.898-.23-3.648 1.1-3.884 3.02-.078.622-1.75 15.292 11.482 21.82 3.4 1.678 6.953 2.5 10.535 2.5 4.6 0 9.245-1.376 13.647-4.115 11.58-7.198 19.985-22.836 19.985-37.183a267.94 267.94 0 0 0-.116-7.27zm-20.982 3.587c-.622-.412-.136-1.726-.03-1.987.733-1.835 3.025-3.422 4.856-3.422.094 0 .2.003.28.013.445.04 1.626.153 2.134 2.78a12.64 12.64 0 0 1 .136.856c-3.878 2.277-6.478 2.35-7.375 1.76zm-36.3 32.006c-1.65-.97-3.778-.415-4.758 1.234-.16.268-.372.56-.588.825l-.113-.286c-1.45-3.87-.418-9.834.104-11.806.5-1.856-.614-3.758-2.468-4.255-1.852-.476-3.757.605-4.255 2.46-.253.94-2.392 9.4.102 16.043 1.597 4.255 4.05 5.33 5.826 5.474a5.72 5.72 0 0 0 .47.02c3.746 0 6.24-3.775 6.933-4.972.96-1.656.398-3.766-1.252-4.738zm64.215-63.123a3.45 3.45 0 0 0 2.147-.744l17.543-13.773c.242-.2.397-.44.574-.673 2.526-1.524 4.236-4.268 4.236-7.427a8.71 8.71 0 0 0-8.7-8.7 8.71 8.71 0 0 0-8.7 8.7c0 2.685 1.248 5.058 3.164 6.655l-12.417 9.748a3.48 3.48 0 0 0-.588 4.883 3.46 3.46 0 0 0 2.74 1.33zm15.802-24.358a1.74 1.74 0 1 1 0 3.48 1.74 1.74 0 1 1 0-3.48zm-4.12 21.06c-1.833-.6-3.796.377-4.403 2.2-.372 1.114-2.055 6.855 1.356 10.262 1.323 1.325 3.063 1.988 5.2 1.985 1.428 0 3.03-.292 4.807-.887 1.823-.605 2.808-2.575 2.2-4.4s-2.575-2.814-4.403-2.2c-1.944.646-2.766.54-2.84.608-.205-.516-.07-2.07.287-3.18.602-1.817-.383-3.78-2.202-4.386zm39.825-14.385a3.49 3.49 0 0 0 .977.139 3.48 3.48 0 0 0 3.339-2.505l2.03-6.96c.538-1.845-.522-3.778-2.365-4.316-1.85-.534-3.777.52-4.316 2.365l-2.03 6.96a3.48 3.48 0 0 0 2.365 4.317zm-20.282-.407c.553.323 1.158.476 1.753.476 1.196 0 2.36-.615 3.007-1.722a3.48 3.48 0 0 0-1.247-4.76c-.7-.408-.605-1.56-.58-1.788.104-.914.65-2.03 1.597-2.325a3.48 3.48 0 0 0 2.289-4.356c-.574-1.838-2.52-2.855-4.36-2.3-3.47 1.08-5.998 4.292-6.443 8.18-.412 3.618 1.114 6.908 3.982 8.586zm-27.604 56.37a3.48 3.48 0 0 0-.653 6.898c.183.268.652 1.2.652 3.54a3.48 3.48 0 1 0 6.96 0c.001-10.32-6.675-10.44-6.96-10.44zm59.036-14.4c.437.072.872.106 1.3.106 2.734 0 5.496-1.38 8.232-4.115a3.48 3.48 0 0 0-4.92-4.92c-2.08 2.083-3.2 2.127-3.488 2.062-.664-.095-1.266-.962-1.4-1.2-.873-1.693-2.943-2.368-4.647-1.516a3.48 3.48 0 0 0-1.556 4.669c.214.43 2.224 4.223 6.47 4.913zm59.15-24.454l-.06-.153c-.617-1.807-2.588-2.8-4.392-2.175-1.825.605-2.8 2.575-2.202 4.4.27.815 1.822 4.907 5.662 5.423.256.034.512.05.765.05 2.4 0 4.673-1.56 6.73-4.646a3.48 3.48 0 0 0-5.791-3.859l-.712.958zm-6.833 63.22c0-14.84-.652-28.76-1.558-40.958 4.94 8.57 9.386 17.228 12.218 24.782a3.48 3.48 0 0 0 3.258 2.257 3.52 3.52 0 0 0 1.222-.221 3.48 3.48 0 0 0 2.037-4.482c-4.405-11.742-12.32-25.726-20.124-38.14-1.902-18.745-4.032-30.643-4.07-30.855-.343-1.892-2.15-3.17-4.045-2.8a3.48 3.48 0 0 0-2.802 4.044c.028.15 1.124 6.28 2.434 16.595l-7.242-10.492.17.054c1.833.6 3.794-.377 4.403-2.198s-.377-3.796-2.2-4.4l-10.44-3.48a3.46 3.46 0 0 0-3.923 1.265 3.5 3.5 0 0 0-.509 1.067c-2.083-1.54-4.755-2.793-7.263-1.742-1.517.63-3.325 2.212-3.325 6.2 0 3.055 1.165 6.358 2.4 9.858 2.05 5.804 3.332 10.072 1.162 12.108-1.2 1.124-2.398 1.55-3.566 1.254-2.146-.544-4.27-3.402-5.685-7.646-.062-.184-.2-.318-.278-.483.732-5.4.413-11.884-1.062-19.253a3.47 3.47 0 0 0-4.095-2.729 3.48 3.48 0 0 0-2.729 4.095c2.272 11.363 1.6 20.634-1.823 24.797-1.32 1.6-2.974 2.358-5.204 2.358-.705 0-1.186-.224-1.665-.775-2.745-3.164-2.734-13.372-1.848-19.615a3.49 3.49 0 0 0-.82-2.77 3.48 3.48 0 0 0-2.627-1.199c-5.987 0-8.258 6.8-10.26 12.818-.878 2.64-2.516 7.55-3.658 8.06-2.106 0-3.468-6.185-3.48-10.443a3.48 3.48 0 0 0-3.48-3.473c-1.926 0-3.48 1.557-3.48 3.477 0 8.026 2.734 17.4 10.44 17.4 5.738 0 8.062-6.252 10.008-12.064.338 4.62 1.382 9.4 3.947 12.366 1.803 2.08 4.196 3.177 6.924 3.177 4.296 0 7.955-1.696 10.585-4.904.477-.58.887-1.247 1.292-1.92 2.02 2.873 4.5 4.767 7.292 5.472.82.207 1.643.312 2.458.312 2.686 0 5.3-1.108 7.578-3.24.47-.442.803-.927 1.162-1.404.85.243 1.714.387 2.57.387 2.82 0 5.533-1.135 7.217-2.216 1.6-1.033 2.077-3.167 1.054-4.785a3.49 3.49 0 0 0-4.791-1.084c-.03.014-2.354 1.35-3.94 1.037.004-3.815-1.376-7.866-2.636-11.435-.717-2.033-1.452-4.115-1.8-5.817.287.242.567.493.818.737a3.48 3.48 0 0 0 4.919 0c.225-.225.355-.498.505-.76 3.607 4.97 11.026 15.4 18.657 27.447 1.457 14.795 2.735 33.668 2.735 54.368a3.48 3.48 0 0 0 3.48 3.48c1.923.001 3.48-1.554 3.48-3.478zm3.48-76.555a3.48 3.48 0 1 0 6.96 0c0-4.095-3.204-10.7-3.847-11.996a3.49 3.49 0 0 0-4.669-1.556 3.48 3.48 0 0 0-1.556 4.669c1.255 2.5 3.112 7.068 3.112 8.883zm-15.834 76.936c-1.706-.87-3.802-.18-4.67 1.533-.374.73-.953 1.543-1.442 2.066-.154-1.383.214-4.146.916-6.436.467-1.53-.167-3.18-1.536-4.003a3.48 3.48 0 0 0-4.252.52l-6.96 6.96a3.48 3.48 0 0 0 4.92 4.92l.177-.177c.3 1.397.877 2.67 1.863 3.657 1.304 1.305 2.88 1.995 4.52 1.995.318 0 .637-.028.957-.078 3.942-.64 6.396-4.985 7.054-6.3.856-1.717.163-3.792-1.548-4.655zm-1.348-28.002H255.36l.67-2.477c9.78-2.033 15.593-5.2 17.302-9.402.6-1.46 1.208-4.414-1.3-7.8-2.27-3.06-5.47-4.43-8.797-3.752-4.945 1.002-9.35 6.33-12.512 14.86-9.824 1.682-16.1 5.208-20.092 8.7-1.412-14.26-6.948-22.73-7.217-23.134a3.48 3.48 0 0 0-5.791 3.859c.063.095 6.375 9.75 6.375 25.908 0 15.883-12.665 27.838-20.878 27.838-3.907 0-5.618-4.644-6.37-8.572 8.042-5.636 15.138-12.158 16.705-18.424 2.12-8.48-.548-14.728-2.314-18.863l-.258-.605c.075.068.146.14.217.207a3.48 3.48 0 0 0 4.919 0 3.48 3.48 0 0 0 0-4.92c-2.034-2.036-5.984-5.234-9.575-3.732-1.517.63-3.326 2.212-3.326 6.2 0 1.798.75 3.554 1.62 5.593 1.567 3.667 3.516 8.23 1.963 14.442-.92 3.676-5.433 8.135-11.4 12.563-.64-.764-1.56-1.277-2.633-1.277h-.006a3.48 3.48 0 0 0-3.475 3.477c0 .626.028 1.295.068 1.982-7.447 4.823-15.874 9.287-22.388 12.25a3.48 3.48 0 0 0 1.443 6.647c.482 0 .972-.098 1.438-.312 1.956-.9 11.243-5.216 20.783-11.128 1.757 5.965 5.48 11.44 12.575 11.44 8.348 0 17.818-6.826 23.284-17.017.66 1.165 1.418 2.28 2.322 3.322 8.76 10.1 25.867 10.215 26.6 10.215a3.48 3.48 0 0 0 .249-6.949c-.028-.003-2.8-.3-4.343-2.1-.93-1.088-1.303-2.582-1.14-4.57.356-4.288 14.2-7.494 26.38-7.683 1.452-.024 2.74-.945 3.226-2.314l3.48-9.786c.378-1.064.216-2.25-.437-3.17-.644-.926-1.707-1.476-2.837-1.476zM264.6 212.3c.066-.013.154-.034.265-.034.333 0 .858.163 1.558 1.108.132.177.556.78.45 1.047-.4.985-2.802 2.613-7.808 4.088 2.202-4.296 4.355-5.97 5.536-6.2zm-21.015 45.743c-3.535-1.15-7.138-2.97-9.632-5.855-2.74-3.17-3.753-7.18-3.1-12.254.1-.267.328-.792.726-1.475 4.9-.45 18 1.483 18.898 5.23-4.038 2.06-7.012 4.96-7.356 9.08-.173 2.067.038 3.817.453 5.274zm74.173-79.163l-3.48-10.44c-.56-1.678-2.303-2.68-4.03-2.3-1.735.37-2.912 1.984-2.735 3.748l6.943 76.2c0 4.822-8.577 14.316-22.435 21.246a3.48 3.48 0 0 0-1.556 4.669c.6 1.22 1.838 1.923 3.116 1.923a3.5 3.5 0 0 0 1.553-.367c12.66-6.33 26.282-17.626 26.282-27.47 0-5.142-3.556-42.134-5.593-62.914 1.65-.704 2.5-2.568 1.934-4.302zm29.035 31.4c.67.67 1.56 1.02 2.462 1.02.588 0 1.18-.15 1.72-.456 1.36-.775 2.037-2.365 1.652-3.884-.623-2.446-.83-5.505-.5-6.755 1.743.054 3.36-1.186 3.617-2.984a3.48 3.48 0 0 0-2.952-3.938c-2.3-.312-4.32.363-5.732 1.933-.914 1.02-1.458 2.328-1.753 3.735l-4.03-4.03a3.48 3.48 0 0 0-4.92 4.92l10.438 10.44zm7.827 3.63l-13.05 9.352a3.48 3.48 0 0 0-.802 4.856c.68.948 1.748 1.45 2.833 1.45a3.47 3.47 0 0 0 2.024-.652l13.05-9.352c1.56-1.118 1.92-3.293.802-4.856s-3.3-1.928-4.857-.8zm-1.155 13.086a3.48 3.48 0 0 0 .305 4.615c.15.252.828 1.583.705 5a3.48 3.48 0 0 0 3.354 3.602l.126.003c1.866 0 3.4-1.48 3.477-3.354.253-7.102-2.07-9.698-3.082-10.484a3.48 3.48 0 0 0-4.885.609zm30.368 25.626a3.48 3.48 0 0 0 3.48-3.48c0-5.134-.264-10.866-.695-16.83 3.45 5.654 6.317 10.867 8.155 15.154.564 1.322 1.848 2.1 3.2 2.1.457 0 .922-.088 1.37-.282a3.48 3.48 0 0 0 1.826-4.567c-3.186-7.435-9.14-17.283-15.92-27.45-1.365-12.772-3.148-25.287-4.534-34.264a3.36 3.36 0 0 0 2.173-.541c1.1-.704 1.614-1.927 1.54-3.144.1.342.185.685.385 1 .023.034 2.26 3.727 1.268 8.52a3.48 3.48 0 0 0 2.703 4.111c.238.047.476.072.708.072 1.615 0 3.063-1.132 3.405-2.776 1.57-7.602-2.058-13.42-2.212-13.664a3.49 3.49 0 0 0-4.806-1.067c-1.103.703-1.625 1.927-1.554 3.147-.1-.344-.2-.7-.392-1.005l-5.873-9.134c-.897-1.394-2.653-1.958-4.193-1.36a3.48 3.48 0 0 0-2.162 3.843c.05.274 2.708 15.544 5.065 33.95L368.856 194l-1.207-14.157a3.56 3.56 0 0 0 .566-.224 3.48 3.48 0 0 0 1.557-4.669l-3.48-6.96c-.75-1.502-2.465-2.25-4.08-1.788a3.49 3.49 0 0 0-2.496 3.7l1.27 13.58-5.98-7.806a3.46 3.46 0 0 0 .844-1.084 3.48 3.48 0 0 0-1.556-4.669l-6.96-3.48c-1.46-.727-3.232-.346-4.263.925s-1.032 3.085-.01 4.363c.188.234 8.756 10.974 19.005 24.836 1.778 23 2.962 46.908 1.3 51.922-.306.918-.84 1.998-1.34 2.036-2.103.292-7.123-4.4-9.644-9.45-1.453-2.902-3.543-3.204-4.66-3.154-3.74.23-5.2 4.346-7.85 11.816-1.9 5.352-4.263 12.006-6.915 14.728-1.437-1.756-3.295-7.646-4.327-13.7.484 1.338 1.738 2.306 3.243 2.306a3.48 3.48 0 0 0 3.48-3.479c0-5.2-3.63-44.7-5.656-66.37a3.48 3.48 0 0 0 1.998-4.326l-3.48-10.44c-.56-1.678-2.276-2.668-4.022-2.304a3.48 3.48 0 0 0-2.744 3.735l6.907 79.222c-.27-1.903-2.046-3.208-3.937-2.953-1.903.275-3.223 2.036-2.952 3.938 1.016 7.113 3.613 19.342 9.593 21.334.472.16 1.108.302 1.854.302 1.372 0 3.115-.486 4.897-2.27 3.8-3.8 6.355-11.014 8.618-17.385l1.687-4.608c3.192 4.662 8.763 10.466 14.406 10.012 1.984-.142 5.593-1.2 7.45-6.776 1.85-5.55 1.12-24.9-.128-43.445l8.667 12.472c1.086 10.42 1.863 20.86 1.863 29.436a3.48 3.48 0 0 0 3.479 3.476zm26.407-18.302c-2.465-18.364-5.9-39.637-8.074-52.693a3.42 3.42 0 0 0 2.915-.62c1.53-1.165 1.822-3.35.655-4.876l-6.307-8.265a3.49 3.49 0 0 0-4.16-1.077 3.48 3.48 0 0 0-2.036 3.786c.063.356 6.268 36.078 10.106 64.668 1.466 10.925-.674 20.7-5.73 26.112-3.25 3.484-7.554 5.06-12.764 4.757-1.913-.102-3.572 1.338-3.692 3.255a3.48 3.48 0 0 0 3.254 3.69 26.94 26.94 0 0 0 1.741.054c6.562 0 12.257-2.405 16.55-7.014 6.56-7.032 9.307-18.617 7.54-31.778zm-38.28 22.938c-1.28 1.4-1.18 3.578.172 4.9.2.183.415.544.416.72.001.098-.14.4-.526.778a3.48 3.48 0 0 0 0 4.92 3.47 3.47 0 0 0 4.922 0c2.207-2.206 2.612-4.445 2.562-5.937-.107-3.2-2.294-5.284-2.73-5.668-1.422-1.236-3.537-1.087-4.815.297zm-12.267 76.312h-24.358v-3.48a3.48 3.48 0 1 0-6.96 0v3.48H143.957c6.96 6.96 20.878 10.44 31.318 10.44h153.1v6.96a3.48 3.48 0 0 0 3.48 3.48h27.838c5.757 0 10.44-4.683 10.44-10.44s-4.683-10.44-10.44-10.44zm0 13.92h-24.36v-3.48h27.838l-.625-1.873c.362.548.625 1.167.625 1.873 0 1.92-1.56 3.48-3.48 3.48z" fill="#f5f5f5"/></svg>