<svg xmlns="http://www.w3.org/2000/svg" viewBox="0 0 512 512"><path d="M38.345 88.273C17.167 88.273 0 105.44 0 126.618v258.76c0 21.177 17.167 38.345 38.345 38.345h132.322V88.273H38.345z" fill="#73af00"/><path d="M170.67 88.277h170.67v335.45H170.67z" fill="#ffe15a"/><path d="M473.655 88.273H341.333V423.72h132.322c21.177 0 38.345-17.167 38.345-38.345V126.618c0-21.178-17.167-38.345-38.345-38.345z" fill="#ff4b55"/><path d="M258.04 205.777l11.693 35.062 36.96.287c2.067.017 2.924 2.654 1.26 3.88l-29.732 21.955 11.148 35.24c.623 1.97-1.62 3.6-3.302 2.4L256 283.106l-30.07 21.492c-1.682 1.202-3.925-.428-3.302-2.4l11.148-35.24-29.732-21.955c-1.663-1.228-.806-3.865 1.26-3.88l36.96-.287 11.693-35.062c.655-1.96 3.43-1.96 4.082.002z" fill="#73af00"/></svg>