<svg xmlns="http://www.w3.org/2000/svg" viewBox="0 0 512 512"><style><![CDATA[.B{fill:#f5f5f5}.C{fill:#ff4b55}.D{fill:#ffe15a}.E{fill:#41479b}]]></style><path d="M0 385.38c0 21.177 17.167 38.345 38.345 38.345h435.3c21.177 0 38.345-17.167 38.345-38.345v-73.47H0v73.47z" class="B"/><path d="M473.655 88.276h-435.3C17.167 88.276 0 105.443 0 126.62v73.47h512v-73.47c0-21.178-17.167-38.345-38.345-38.345z" class="C"/><path d="M0 200.1h512v111.8H0z" class="E"/><path d="M173.02 200.07h-63.56l-2.648-15.9h68.855z" class="D"/><path d="M108.8 196.097l.662 3.973h63.56l.662-3.973z" fill="#ffd350"/><g class="D"><path d="M139.92 147.1h2.648v10.593h-2.648z"/><path d="M137.27 149.75h7.945v2.648h-7.945zm35.958 39.726c-.3 0-.604-.052-.903-.158a2.65 2.65 0 0 1-1.587-3.393l5.6-15.48a2.81 2.81 0 0 0-.18-2.32c-.2-.375-.695-1.035-1.624-1.234-6.84-1.453-20.096-3.897-32.024-3.897h-2.558c-11.927 0-25.184 2.444-32.026 3.9-.926.196-1.414.856-1.62 1.23a2.81 2.81 0 0 0-.18 2.32l5.6 15.48a2.65 2.65 0 0 1-1.587 3.393c-1.374.5-2.895-.215-3.392-1.588l-5.6-15.48a8.1 8.1 0 0 1 .526-6.694c1.097-1.978 2.973-3.38 5.15-3.843 7.047-1.5 20.718-4.017 33.13-4.017h2.558c12.413 0 26.084 2.517 33.128 4.013 2.18.466 4.055 1.867 5.152 3.846 1.135 2.046 1.326 4.484.527 6.694l-5.6 15.48c-.388 1.078-1.406 1.747-2.488 1.747zm-31.978-2.316a2.65 2.65 0 0 1-2.648-2.648v-21.517a2.65 2.65 0 0 1 2.648-2.648 2.65 2.65 0 0 1 2.648 2.648v21.517c.001 1.463-1.185 2.648-2.648 2.648z"/><path d="M159.56 189.476c-.18 0-.36-.018-.54-.054a2.65 2.65 0 0 1-2.055-3.132l3.212-15.48c.417-2.017-.236-3.784-.608-4.094-3.672-1.347-11.04-3.722-17.594-3.722h-1.465c-6.554 0-13.92 2.375-17.73 3.79-.235.24-.89 2.007-.472 4.024l3.212 15.48a2.65 2.65 0 0 1-2.055 3.132c-1.434.277-2.836-.623-3.13-2.056l-3.212-15.48c-.8-3.86.428-8.8 3.808-10.062 5.063-1.882 12.565-4.125 19.578-4.125h1.465c7.014 0 14.517 2.242 19.576 4.122 3.383 1.265 4.61 6.207 3.81 10.066l-3.212 15.48c-.258 1.252-1.36 2.1-2.588 2.1z"/></g><path d="M107.476 188.152h67.53l.662-3.972h-68.855z" fill="#ffd350"/><path d="M90.924 200.07a2.65 2.65 0 0 0-2.648 2.648v92.486c0 29.365 23.713 53.17 52.966 53.17s52.966-23.805 52.966-53.17v-92.486a2.65 2.65 0 0 0-2.648-2.648H90.924z" class="C"/><path d="M146.538 287.463l5.297-13.24-10.593 2.648-10.593-2.648 5.297 13.24-13.24 45.02s7.945 5.297 18.538 5.297 18.538-5.297 18.538-5.297l-13.243-45.02z" class="B"/><path d="M122.06 298.135l-4.673 1.17 10.28-18.502-4.63-2.57-12.485 22.472H98.87V306h5.7l-7.344 5.875 3.308 4.138 6.24-4.992-2.46 7.38 5.025 1.676 4.837-14.51 9.183-2.296z" class="D"/><path d="M122.703 226.552l-12.09-6.045a5.3 5.3 0 0 1-2.77-6.022l.684-2.735a3.01 3.01 0 0 0-2.918-3.736c-.914 0-1.778.415-2.348 1.13a44.22 44.22 0 0 0-9.69 27.625v55.99s11.06-2.212 21.048-16.742c1.834-2.668 4.854-4.247 8.072-4.412l-5.286 15.857L128 290.11l9.27-11.03-14.566-52.53z" class="B"/><path d="M160.422 298.135l4.673 1.17-10.28-18.502 4.63-2.57 12.483 22.472h11.685V306h-5.69l7.345 5.875-3.308 4.138-6.24-4.992 2.46 7.38-5.026 1.676-4.836-14.51-9.183-2.296z" class="D"/><path d="M159.78 226.552l12.09-6.045a5.3 5.3 0 0 0 2.77-6.022l-.684-2.735a3.01 3.01 0 0 1 2.918-3.736c.914 0 1.778.415 2.348 1.13a44.22 44.22 0 0 1 9.69 27.625v55.99s-11.06-2.212-21.048-16.742c-1.834-2.668-4.853-4.247-8.072-4.412l5.286 15.857-10.593 2.648-9.27-11.03 14.565-52.528z" class="B"/><path d="M125.352 208.014H112.1l3.973 5.297 9.27 2.648-5.297 2.648H128zm31.778 0h13.24l-3.972 5.297-9.27 2.648 5.297 2.648h-7.945z" class="D"/><path d="M158.996 205.938l-12.458 2.077-5.297 10.593-5.297-10.593-12.458-2.077c-1.428-.238-2.524 1.245-1.876 2.54l6.4 12.778-5.297 5.297h37.076l-5.297-5.297 6.39-12.778c.648-1.296-.447-2.78-1.875-2.54z" class="B"/><circle cx="141.24" cy="185.34" r="3.972" fill="#ffbe50"/><ellipse cx="141.19" cy="194.82" rx="3.139" ry="2.207" class="E"/><ellipse cx="125.52" cy="194.82" rx="3.139" ry="2.207" class="C"/><g class="E"><ellipse cx="109.85" cy="194.82" rx="3.139" ry="2.207"/><ellipse cx="172.52" cy="194.82" rx="3.139" ry="2.207"/></g><ellipse cx="156.85" cy="194.82" rx="3.139" ry="2.207" class="C"/><g fill="#ffbe50"><circle cx="159.65" cy="185.34" r="3.972"/><circle cx="174.17" cy="185.34" r="3.972"/><circle cx="122.86" cy="185.34" r="3.972"/><circle cx="108.33" cy="185.34" r="3.972"/></g><path d="M145.803 162.994c.455-.78.735-1.678.735-2.648a5.3 5.3 0 0 0-5.297-5.297 5.3 5.3 0 0 0-5.297 5.297c0 .97.28 1.867.735 2.648h9.124z" class="E"/><path d="M141.24 280.842c-10.953 0-19.862-8.91-19.862-19.862v-35.752h39.724v35.752c0 10.953-8.91 19.862-19.862 19.862z" class="C"/><path d="M159.78 226.552v34.428c0 10.238-8.3 18.538-18.538 18.538s-18.538-8.3-18.538-18.538v-34.428h37.076m2.65-2.648h-42.372v37.076c0 11.682 9.504 21.186 21.186 21.186s21.186-9.504 21.186-21.186v-37.076z" fill="#a54b50"/><g class="B"><path d="M137.27 279.08c1.28.28 2.607.437 3.972.437a18.63 18.63 0 0 0 3.972-.437v-52.53h-7.945c.001 0 .001 52.53.001 52.53z"/><path d="M122.7 248.4h37.08v7.945H122.7z"/></g></svg>