<svg xmlns="http://www.w3.org/2000/svg" viewBox="0 0 512 512"><path d="M473.655 423.724h-435.3C17.167 423.724 0 406.557 0 385.378V126.62c0-21.177 17.167-38.345 38.345-38.345h435.3c21.177 0 38.345 17.167 38.345 38.345v258.76c0 21.177-17.167 38.344-38.345 38.344z" fill="#f5f5f5"/><path d="M473.655 88.275h-435.3C17.167 88.275 0 105.442 0 126.62V256h512V126.62c0-21.178-17.167-38.345-38.345-38.345z" fill="#ff4b55"/><path d="M0 256h512v158.897a8.83 8.83 0 0 1-8.828 8.828H8.828A8.83 8.83 0 0 1 0 414.896V256zm72.57-83.738c0-29.028 21.3-53.1 49.113-57.543 1.5-.242 1.578-2.32.088-2.663-6.886-1.583-14.2-2.034-21.793-1-29.998 4.086-53.186 30.046-53.6 60.318-.483 34.566 27.383 62.712 61.785 62.712 4.683 0 9.23-.547 13.606-1.554 1.5-.342 1.414-2.424-.094-2.666-27.802-4.447-49.095-28.462-49.095-57.604zm49.57 15.532l-2.613 7.836-8.26.064c-1.07.01-1.513 1.373-.652 2.008l6.644 4.907-2.492 7.875c-.322 1.02.84 1.863 1.708 1.24l6.72-4.803 6.72 4.803c.87.622 2.03-.222 1.708-1.24l-2.492-7.875 6.644-4.907c.86-.636.417-2-.652-2.008l-8.26-.064-2.613-7.836c-.34-1.013-1.774-1.013-2.112 0zm40.827 0l-2.613 7.836-8.26.064c-1.07.01-1.513 1.373-.652 2.008l6.644 4.907-2.492 7.875c-.322 1.02.84 1.863 1.708 1.24l6.72-4.803 6.72 4.803c.87.622 2.03-.222 1.708-1.24l-2.492-7.875 6.644-4.907c.86-.636.417-2-.652-2.008l-8.26-.064-2.613-7.836c-.34-1.013-1.773-1.013-2.112 0zm-20.23-63.004l-2.613 7.836-8.26.064c-1.07.008-1.513 1.373-.652 2.008l6.644 4.907-2.492 7.875c-.322 1.02.84 1.863 1.708 1.24l6.72-4.803 6.72 4.803c.87.622 2.03-.222 1.708-1.24l-2.492-7.875 6.644-4.907c.86-.636.417-2-.652-2.008l-8.26-.064-2.613-7.836c-.34-1.014-1.774-1.014-2.112 0zm-32.552 24.138l-2.613 7.836-8.26.064c-1.07.008-1.513 1.373-.652 2.008l6.644 4.907-2.492 7.875c-.322 1.02.84 1.863 1.708 1.24l6.72-4.803 6.72 4.803c.87.622 2.03-.222 1.708-1.24l-2.492-7.875 6.645-4.907c.86-.636.417-2-.652-2.008l-8.26-.064-2.613-7.836c-.34-1.015-1.775-1.015-2.113 0zm64.828 0l-2.613 7.836-8.26.064c-1.07.008-1.513 1.373-.652 2.008l6.644 4.907-2.492 7.875c-.322 1.02.84 1.863 1.708 1.24l6.72-4.803 6.72 4.803c.87.622 2.03-.222 1.708-1.24l-2.492-7.875 6.644-4.907c.86-.636.417-2-.652-2.008l-8.26-.064-2.613-7.836c-.34-1.015-1.774-1.015-2.112 0z" fill="#f5f5f5"/></svg>