<svg xmlns="http://www.w3.org/2000/svg" viewBox="0 0 512 512"><path d="M0 150.07V361.93L141.24 256z" fill="#464655"/><path d="M473.655 88.276H70.62l158.897 123.586H512v-85.24c0-21.178-17.167-38.345-38.345-38.345z" fill="#ff4b55"/><path d="M70.62 423.724h403.034c21.177 0 38.345-17.167 38.345-38.345v-85.24H229.517L70.62 423.724z" fill="#41479b"/><path d="M56.89 88.276H38.345C17.167 88.276 0 105.443 0 126.62v6.692L154.974 256 0 378.69v6.688c0 21.177 17.167 38.345 38.345 38.345h18.54L224.146 291.3H512V220.7H224.148L56.89 88.276z" fill="#73af00"/><path d="M85.333 88.276H56.89L224.148 220.7H512v-17.656H230.29z" fill="#f5f5f5"/><path d="M0 133.313v22.518L126.53 256 0 356.173v22.518L154.974 256z" fill="#ffe15a"/><path d="M224.147 291.3L56.884 423.724H85.33l144.96-114.758H512V291.3z" fill="#f5f5f5"/></svg>