<svg xmlns="http://www.w3.org/2000/svg" xmlns:xlink="http://www.w3.org/1999/xlink" viewBox="0 0 512 512"><style><![CDATA[.B{fill:#fab446}.C{fill:#c8414b}.D{fill:#f5f5f5}.E{fill:#5064aa}]]></style><path d="M0 385.38c0 21.177 17.167 38.345 38.345 38.345h435.3c21.177 0 38.345-17.167 38.345-38.345v-32.276H0v32.276zM473.655 88.276h-435.3C17.167 88.276 0 105.443 0 126.62v32.276h512V126.62c0-21.178-17.167-38.345-38.345-38.345z" class="C"/><path d="M0 158.9h512v194.2H0z" fill="#ffd250"/><path d="M216.276 256l7.485-33.68a4.97 4.97 0 0 0-4.849-6.044h-5.272a4.97 4.97 0 0 0-4.849 6.044l7.485 33.68z" class="C"/><path d="M207.45 238.34h17.655v75.03H207.45z" class="D"/><path d="M203.03 229.52h26.483v8.828H203.03z" class="B"/><path d="M185.38 256h44.14v8.828h-44.14zm44.137 35.3l-26.483-8.827v-8.828l26.483 8.828zM83.862 256l7.485-33.68a4.97 4.97 0 0 0-4.849-6.044h-5.272a4.97 4.97 0 0 0-4.849 6.044L83.862 256z" class="C"/><path d="M114.76 229.517a8.83 8.83 0 0 0-8.828 8.828v57.38c0 10.725 10 30.897 44.138 30.897s44.138-20.17 44.138-30.897v-57.38a8.83 8.83 0 0 0-8.828-8.828h-70.62z" class="D"/><g class="C"><path d="M150.07 273.655H105.93v-35.3a8.83 8.83 0 0 1 8.828-8.828h35.3v44.138z"/><path d="M150.07 273.655h44.138v22.07c0 12.19-9.88 22.07-22.07 22.07s-22.07-9.88-22.07-22.07v-22.07z"/></g><path d="M105.93 273.655h44.138v22.07c0 12.19-9.88 22.07-22.07 22.07s-22.07-9.88-22.07-22.07v-22.07z" class="B"/><path d="M141.24 313.28v-39.625h-8.828v43.693c3.284-.666 6.25-2.12 8.828-4.068zm-17.654 4.068v-43.693h-8.828v39.625c2.578 1.948 5.545 3.402 8.828 4.068z" class="C"/><path d="M114.76 256h26.483v8.828H114.76z" fill="#ffb441"/><g class="B"><path d="M114.76 238.34h26.483v8.828H114.76z"/><path d="M119.17 243.6h17.655v15.992H119.17z"/></g><path d="M75.03 238.34h17.655v75.03H75.03z" class="D"/><path d="M70.62 308.97h26.483v8.828H70.62zm0-79.45h26.483v8.828H70.62z" class="B"/><path d="M66.2 317.8h35.3v8.828H66.2z" class="E"/><path d="M207.45 308.97h26.483v8.828H207.45z" class="B"/><path d="M198.62 317.8h35.3v8.828h-35.3z" class="E"/><path d="M123.6 220.7h52.966v8.828H123.6z" class="B"/><path d="M145.66 194.2h8.828v26.483h-8.828z" fill="#ffb441"/><g class="D"><path d="M141.24 207.448A13.26 13.26 0 0 1 128 194.207a13.26 13.26 0 0 1 13.241-13.241 13.26 13.26 0 0 1 13.241 13.241c.001 7.3-5.94 13.24-13.24 13.24zm0-17.655a4.42 4.42 0 0 0-4.414 4.414 4.42 4.42 0 0 0 4.414 4.414 4.42 4.42 0 0 0 4.414-4.414 4.42 4.42 0 0 0-4.414-4.414z"/><use xlink:href="#B"/><use xlink:href="#B" x="17.655" y="8.828"/><path d="M123.586 216.276a13.26 13.26 0 0 1-13.241-13.241 13.26 13.26 0 0 1 13.241-13.241 13.26 13.26 0 0 1 13.241 13.241c.001 7.3-5.94 13.24-13.24 13.24zm0-17.655a4.42 4.42 0 0 0-4.414 4.414 4.42 4.42 0 0 0 4.414 4.414 4.42 4.42 0 0 0 4.414-4.415c0-2.435-1.978-4.413-4.414-4.413z"/></g><path d="M176.552 291.3v4.414a4.42 4.42 0 0 1-4.414 4.414 4.42 4.42 0 0 1-4.414-4.414V291.3h8.828m8.827-8.827h-26.483v13.24a13.26 13.26 0 0 0 13.241 13.241 13.26 13.26 0 0 0 13.241-13.241l.001-13.24z" class="B"/><path d="M172.138 264.828A8.83 8.83 0 0 1 163.31 256v-8.828a8.83 8.83 0 0 1 8.828-8.828 8.83 8.83 0 0 1 8.828 8.828V256a8.83 8.83 0 0 1-8.828 8.828z" fill="#ffa0d2"/><circle cx="150.07" cy="273.65" r="13.241" class="E"/><path d="M145.66 176.55h8.828v26.483h-8.828z" class="B"/><path d="M123.586 220.7l-8.828-8.828 5.17-5.17c7.993-7.993 18.835-12.484 30.14-12.484s22.146 4.49 30.14 12.484l5.17 5.17-8.828 8.828h-52.966z" class="C"/><g fill="#ffd250"><circle cx="150.07" cy="211.86" r="4.414"/><circle cx="132.41" cy="211.86" r="4.414"/><circle cx="167.72" cy="211.86" r="4.414"/></g><path d="M70.62 256h44.14v8.828H70.62zm0 35.3l26.482-8.827v-8.828l-26.482 8.828z" class="C"/><defs ><path id="B" d="M158.897 207.448a13.26 13.26 0 0 1-13.241-13.241 13.26 13.26 0 0 1 13.241-13.241 13.26 13.26 0 0 1 13.241 13.241 13.26 13.26 0 0 1-13.241 13.241zm0-17.655a4.42 4.42 0 0 0-4.414 4.414 4.42 4.42 0 0 0 4.414 4.414 4.42 4.42 0 0 0 4.414-4.414 4.42 4.42 0 0 0-4.414-4.414z"/></defs></svg>