<svg xmlns="http://www.w3.org/2000/svg" viewBox="0 0 512 512"><path d="M473.655 423.724h-435.3C17.167 423.724 0 406.557 0 385.38V126.62c0-21.177 17.167-38.345 38.345-38.345h435.3c21.177 0 38.345 17.167 38.345 38.345v258.76c0 21.177-17.167 38.344-38.345 38.344z" fill="#ff4b55"/><path d="M353.103 220.7H291.3v-61.793a8.83 8.83 0 0 0-8.828-8.828h-52.966a8.83 8.83 0 0 0-8.828 8.828V220.7h-61.793a8.83 8.83 0 0 0-8.828 8.828v52.966a8.83 8.83 0 0 0 8.828 8.828h61.793v61.793a8.83 8.83 0 0 0 8.828 8.828h52.966a8.83 8.83 0 0 0 8.828-8.828V291.3h61.793a8.83 8.83 0 0 0 8.828-8.828v-52.966a8.83 8.83 0 0 0-8.828-8.826z" fill="#f5f5f5"/></svg>