<svg xmlns="http://www.w3.org/2000/svg" viewBox="0 0 512 512"><path d="M473.655 88.275h-435.3C17.167 88.275 0 105.442 0 126.62v258.76c0 21.177 17.167 38.345 38.345 38.345h435.3c21.177 0 38.345-17.167 38.345-38.345V126.62c0-21.178-17.167-38.345-38.345-38.345z" fill="#ff4b55"/><path d="M253.474 225.75l13.837 18.1 21.606-7.232a1.33 1.33 0 0 1 1.513 2.01L277.5 257.38l13.555 18.314a1.33 1.33 0 0 1-1.444 2.059l-21.834-6.5-13.228 18.55a1.33 1.33 0 0 1-2.406-.737l-.555-22.777-21.73-6.85a1.33 1.33 0 0 1-.042-2.515l21.5-7.566-.202-22.783a1.33 1.33 0 0 1 2.378-.817zm-76.518 100.9c-38.995 0-70.627-31.633-70.627-70.663 0-38.958 31.633-70.662 70.627-70.662 14.508 0 27.887 4.462 39.038 12.014 1.707 1.156 3.656-1.087 2.227-2.573-16.663-17.325-40.248-27.894-66.398-27.002-44.926 1.533-82.118 37.553-85 82.413-3.288 51.384 37.398 94.087 88.054 94.087 24.953 0 47.38-10.432 63.393-27.1 1.415-1.474-.538-3.683-2.23-2.537-11.162 7.568-24.563 12.034-39.096 12.034z" fill="#f5f5f5"/></svg>