<svg xmlns="http://www.w3.org/2000/svg" viewBox="0 0 512 512"><path d="M473.655 88.276h-435.3C17.167 88.276 0 105.443 0 126.62v258.76c0 21.177 17.167 38.345 38.345 38.345h435.3c21.177 0 38.345-17.167 38.345-38.345V126.62c0-21.178-17.167-38.345-38.345-38.345z" fill="#41479b"/><path d="M511.47 120.282c-3.022-18.16-18.797-32.007-37.814-32.007h-9.977l-163.54 107.147V88.276h-88.276v107.147L48.322 88.276h-9.977c-19.017 0-34.792 13.847-37.814 32.007l139.778 91.58H0v88.276h140.31L.53 391.717c3.022 18.16 18.797 32.007 37.814 32.007h9.977l163.54-107.147v107.147h88.276V316.577l163.54 107.147h9.977c19.017 0 34.792-13.847 37.814-32.007l-139.778-91.58H512V211.86H371.69l139.778-91.58z" fill="#f5f5f5"/><path d="M282.483 88.276h-52.966v141.24H0v52.966h229.517v141.24h52.966v-141.24H512v-52.966H282.483zm-257.7 332.976l186.583-121.114h-32.428L9.224 410.3c4.153 4.847 9.5 8.645 15.57 10.942zm321.595-121.114H313.96l180.716 117.305c5.057-3.32 9.277-7.807 12.287-13.075l-160.575-104.23zM4.05 109.475l157.73 102.387h32.428L15.475 95.842a38.5 38.5 0 0 0-11.426 13.633zm328.516 102.387L502.6 101.487c-4.2-4.83-9.578-8.607-15.7-10.86L300.138 211.862h32.428z" fill="#ff4b55"/></svg>